<?xml version="1.0" encoding="UTF-8" standalone="no"?>
<!-- Created with Inkscape (http://www.inkscape.org/) -->

<svg
   xmlns:dc="http://purl.org/dc/elements/1.1/"
   xmlns:cc="http://creativecommons.org/ns#"
   xmlns:rdf="http://www.w3.org/1999/02/22-rdf-syntax-ns#"
   xmlns:svg="http://www.w3.org/2000/svg"
   xmlns="http://www.w3.org/2000/svg"
   xmlns:sodipodi="http://sodipodi.sourceforge.net/DTD/sodipodi-0.dtd"
   xmlns:inkscape="http://www.inkscape.org/namespaces/inkscape"
   width="210mm"
   height="297mm"
   viewBox="0 0 210 297"
   version="1.1"
   id="svg8"
   inkscape:version="0.92.3 (2405546, 2018-03-11)"
   sodipodi:docname="drawing.svg">
  <defs
     id="defs2">
    <inkscape:path-effect
       effect="skeletal"
       id="path-effect6024"
       is_visible="true"
       pattern="m 50.270833,29.379464 c 0,-2.76 2.24,-5 5,-5 2.76,0 5,2.24 5,5 0,2.76 -2.24,5 -5,5 -2.76,0 -5,-2.24 -5,-5 z"
       copytype="single_stretched"
       prop_scale="0.26713649"
       scale_y_rel="false"
       spacing="0"
       normal_offset="0"
       tang_offset="0"
       prop_units="false"
       vertical_pattern="false"
       fuse_tolerance="0" />
    <inkscape:path-effect
       effect="skeletal"
       id="path-effect6000"
       is_visible="true"
       pattern="m 0.09449405,4.2440476 c 0,-2.76 2.23999995,-4.99999998 4.99999995,-4.99999998 2.76,0 5,2.23999998 5,4.99999998 0,2.76 -2.24,5 -5,5 -2.76,0 -4.99999995,-2.24 -4.99999995,-5 z"
       copytype="single_stretched"
       prop_scale="0.14870517"
       scale_y_rel="false"
       spacing="0"
       normal_offset="0"
       tang_offset="0"
       prop_units="false"
       vertical_pattern="false"
       fuse_tolerance="0" />
    <inkscape:path-effect
       effect="skeletal"
       id="path-effect5783"
       is_visible="true"
       pattern="m 0.136222,3.46743 c 0,-2.76 2.24,-5 5,-5 2.76,0 5,2.24 5,5 0,2.76 -2.24,5 -5,5 -2.76,0 -5,-2.24 -5,-5 z"
       copytype="single_stretched"
       prop_scale="-2e-007"
       scale_y_rel="false"
       spacing="0"
       normal_offset="0"
       tang_offset="0"
       prop_units="false"
       vertical_pattern="false"
       fuse_tolerance="0" />
    <inkscape:path-effect
       effect="skeletal"
       id="path-effect5779"
       is_visible="true"
       pattern="M 0,5 C 0,2.24 2.24,0 5,0 7.76,0 10,2.24 10,5 10,7.76 7.76,10 5,10 2.24,10 0,7.76 0,5 Z"
       copytype="single_stretched"
       prop_scale="0.15520173"
       scale_y_rel="false"
       spacing="0"
       normal_offset="0"
       tang_offset="0"
       prop_units="false"
       vertical_pattern="false"
       fuse_tolerance="0" />
    <inkscape:path-effect
       effect="skeletal"
       id="path-effect5767"
       is_visible="true"
       pattern="m 0,4.4330357 c 0,-2.76 2.24,-4.99999999 5,-4.99999999 2.76,0 5,2.23999999 5,4.99999999 0,2.76 -2.24,5 -5,5 -2.76,0 -5,-2.24 -5,-5 z"
       copytype="single_stretched"
       prop_scale="0.24977326"
       scale_y_rel="false"
       spacing="0"
       normal_offset="0"
       tang_offset="0"
       prop_units="false"
       vertical_pattern="false"
       fuse_tolerance="0" />
    <inkscape:path-effect
       effect="skeletal"
       id="path-effect5761"
       is_visible="true"
       pattern="m -0.80180859,4.8663652 c 0,-2.76 2.24000009,-4.99999997 5.00000009,-4.99999997 2.76,0 5.0000002,2.23999997 5.0000002,4.99999997 0,2.76 -2.2400002,5.0000005 -5.0000002,5.0000005 -2.76,0 -5.00000009,-2.2400005 -5.00000009,-5.0000005 z"
       copytype="single_stretched"
       prop_scale="0.26458333"
       scale_y_rel="false"
       spacing="0"
       normal_offset="0"
       tang_offset="0"
       prop_units="false"
       vertical_pattern="false"
       fuse_tolerance="0" />
    <inkscape:path-effect
       effect="skeletal"
       id="path-effect5751"
       is_visible="true"
       pattern="m 0.80180858,5 c 0,-2.76 2.24000002,-5 5.00000002,-5 2.76,0 5.0000004,2.24 5.0000004,5 0,2.76 -2.2400004,5 -5.0000004,5 -2.76,0 -5.00000002,-2.24 -5.00000002,-5 z"
       copytype="single_stretched"
       prop_scale="0.11141225"
       scale_y_rel="false"
       spacing="0"
       normal_offset="0"
       tang_offset="0"
       prop_units="false"
       vertical_pattern="false"
       fuse_tolerance="0" />
    <inkscape:path-effect
       effect="skeletal"
       id="path-effect5747"
       is_visible="true"
       pattern="m -0.26726953,3.9309219 c 0,-2.76 2.24000003,-5 5.00000003,-5 2.76,0 5,2.24 5,5 0,2.76 -2.24,5 -5,5 -2.76,0 -5.00000003,-2.24 -5.00000003,-5 z"
       copytype="single_stretched"
       prop_scale="-0.20901673"
       scale_y_rel="false"
       spacing="0"
       normal_offset="0"
       tang_offset="0"
       prop_units="false"
       vertical_pattern="false"
       fuse_tolerance="0" />
    <inkscape:path-effect
       effect="skeletal"
       id="path-effect5743"
       is_visible="true"
       pattern="M 0,5 C 0,2.24 2.24,0 5,0 7.76,0 10,2.24 10,5 10,7.76 7.76,10 5,10 2.24,10 0,7.76 0,5 Z"
       copytype="single_stretched"
       prop_scale="0.18858854"
       scale_y_rel="false"
       spacing="0"
       normal_offset="0"
       tang_offset="0"
       prop_units="false"
       vertical_pattern="false"
       fuse_tolerance="0" />
    <inkscape:path-effect
       effect="skeletal"
       id="path-effect5739"
       is_visible="true"
       pattern="M 0,5 C 0,2.24 2.24,0 5,0 7.76,0 10,2.24 10,5 10,7.76 7.76,10 5,10 2.24,10 0,7.76 0,5 Z"
       copytype="single_stretched"
       prop_scale="-0.248817"
       scale_y_rel="false"
       spacing="0"
       normal_offset="0"
       tang_offset="0"
       prop_units="false"
       vertical_pattern="false"
       fuse_tolerance="0" />
  </defs>
  <sodipodi:namedview
     id="base"
     pagecolor="#ffffff"
     bordercolor="#666666"
     borderopacity="1.0"
     inkscape:pageopacity="0.0"
     inkscape:pageshadow="2"
     inkscape:zoom="0.125"
     inkscape:cx="351.4697"
     inkscape:cy="1191.4113"
     inkscape:document-units="mm"
     inkscape:current-layer="layer1"
     showgrid="false"
     showguides="true"
     inkscape:guide-bbox="true"
     inkscape:window-width="1440"
     inkscape:window-height="838"
     inkscape:window-x="1358"
     inkscape:window-y="-8"
     inkscape:window-maximized="1"
     inkscape:snap-bbox="true" />
  <metadata
     id="metadata5">
    <rdf:RDF>
      <cc:Work
         rdf:about="">
        <dc:format>image/svg+xml</dc:format>
        <dc:type
           rdf:resource="http://purl.org/dc/dcmitype/StillImage" />
        <dc:title></dc:title>
      </cc:Work>
    </rdf:RDF>
  </metadata>
  <g
     inkscape:label="Layer 1"
     inkscape:groupmode="layer"
     id="layer1">
    <path
       style="opacity:1;fill:#ffffff;fill-opacity:1;fill-rule:evenodd;stroke:#000000;stroke-width:10.58253098;stroke-miterlimit:4;stroke-dasharray:none;stroke-dashoffset:0;stroke-opacity:1"
       d="M 302.27591,107.06183 C 342.65001,63.682964 333.66213,26.319657 301.98255,-0.12939437 270.30296,-26.578447 227.92808,-32.097522 187.55398,11.28135 c -40.3741,43.378866 -47.42239,99.98558 -15.74281,126.43463 31.67958,26.44906 90.09064,12.72473 130.46474,-30.65415 z"
       id="ellipse6020"
       inkscape:export-filename="C:\Users\asus\Desktop\bee.png"
       inkscape:export-xdpi="13.939825"
       inkscape:export-ydpi="13.939825"
       inkscape:connector-curvature="0"
       sodipodi:nodetypes="sssss" />
    <path
       style="opacity:1;fill:#ffffff;fill-opacity:1;fill-rule:evenodd;stroke:#000000;stroke-width:10.58253098;stroke-miterlimit:4;stroke-dasharray:none;stroke-dashoffset:0;stroke-opacity:1"
       d="M 6.8798711,0.13342363 C 44.96192,41.049651 50.15214,95.660004 18.47255,122.10906 c -31.679587,26.44906 -88.232574,14.7211 -126.31462,-26.195151 -38.08205,-40.916232 -27.23609,-76.283183 4.4435,-102.7322334 31.679592,-26.4490546 72.196401,-33.9644896 110.2784411,6.95174803 z"
       id="path6016"
       inkscape:export-filename="C:\Users\asus\Desktop\bee.png"
       inkscape:export-xdpi="13.939825"
       inkscape:export-ydpi="13.939825"
       inkscape:connector-curvature="0"
       sodipodi:nodetypes="sssss" />
    <path
       id="path5735"
       style="opacity:1;fill:#ffc200;fill-opacity:1;fill-rule:evenodd;stroke:#000000;stroke-width:10.35472775;stroke-miterlimit:4;stroke-dasharray:none;stroke-dashoffset:0;stroke-opacity:1"
       d="m 111.56803,-4.7801674 a 112.51936,139.15174 0.30204079 0 0 -11.24681,0.02015 A 112.51936,139.15174 0.30204079 0 0 -6.5468059,141.34539 112.51936,139.15174 0.30204079 0 0 106.59755,273.26802 c 0.0297,-0.0352 0.0615,-0.068 0.10434,-0.0913 0.12194,-0.0661 0.26727,-0.0772 0.40138,-0.11742 0.10509,-0.0303 0.168,-0.0352 0.20068,-0.0252 0.0594,0.0252 0.0144,0.10987 -0.0686,0.21867 a 112.51936,139.15174 0.30204079 0 0 4.12099,-0.0805 A 112.51936,139.15174 0.30204079 0 0 218.22156,127.06692 112.51936,139.15174 0.30204079 0 0 111.56798,-4.7802494 Z"
       inkscape:connector-curvature="0"
       inkscape:export-filename="C:\Users\asus\Desktop\bee.png"
       inkscape:export-xdpi="13.939825"
       inkscape:export-ydpi="13.939825" />
    <path
       style="fill:#000000;stroke:none;stroke-width:1.3698442px;stroke-linecap:butt;stroke-linejoin:miter;stroke-opacity:1"
       d="m 70.02539,5.3448576 c -0.90282,1.474446 12.24569,15.7352564 38.02971,15.0649714 2.17335,-0.05643 4.30834,-0.233288 6.3949,-0.5221 0,0 0,0 0,0 9.99991,-1.534457 18.67027,-5.461243 23.70291,-8.13649 5.37221,-2.8556784 8.37978,-5.1976714 7.94193,-6.4063814 -0.46432,-1.281872 -4.37997,-1.228715 -10.47263,-0.09623 -6.04545,1.123508 -13.98546,3.483489 -22.63782,4.314456 -3e-5,0 -3e-5,0 -3e-5,0 -1.71392,0.194994 -3.46538,0.321966 -5.25995,0.377895 C 87.96988,10.556596 71.56498,2.8306526 70.02539,5.3451176 Z"
       id="path5745"
       inkscape:export-filename="C:\Users\asus\Desktop\bee.png"
       inkscape:export-xdpi="13.939825"
       inkscape:export-ydpi="13.939825"
       inkscape:connector-curvature="0" />
    <path
       style="opacity:1;fill:#ffc200;fill-opacity:1;fill-rule:evenodd;stroke:#000000;stroke-width:10.35472775;stroke-miterlimit:4;stroke-dasharray:none;stroke-dashoffset:0;stroke-opacity:1"
       d="M 185.43991,-37.796232 A 81.045986,72.046586 0 0 1 104.39392,34.25037 81.045986,72.046586 0 0 1 23.34795,-37.796232 81.045986,72.046586 0 0 1 104.39392,-109.8428 81.045986,72.046586 0 0 1 185.43991,-37.796232 Z"
       id="path5755"
       inkscape:export-filename="C:\Users\asus\Desktop\bee.png"
       inkscape:export-xdpi="13.939825"
       inkscape:export-ydpi="13.939825"
       inkscape:connector-curvature="0" />
    <path
       style="fill:#000000;stroke:none;stroke-width:1.29299414px;stroke-linecap:butt;stroke-linejoin:miter;stroke-opacity:1"
       d="m 44.14121,12.517108 c 1.27362,-1.399925 7.30543,2.14584 17.38356,5.433428 10.92768,3.564712 23.98668,5.992311 41.62931,6.502066 2.1e-4,0 0.26492,0.0051 0.26515,0.0051 17.6195,0.152671 30.68855,-1.694632 41.7788,-4.741879 10.20689,-2.804487 16.40873,-6.006116 17.59558,-4.548398 1.00948,1.239849 -3.26982,7.152096 -13.99669,12.682972 -11.07076,5.708234 -26.7045,9.67941 -45.62531,9.190111 -0.0968,-8.58e-4 -0.19391,-0.0018 -0.29095,-0.0029 C 83.85206,36.830022 68.31779,32.15707 57.50305,25.917464 47.01494,19.866292 43.06218,13.700703 44.14122,12.514616 Z"
       id="path5765"
       inkscape:export-filename="C:\Users\asus\Desktop\bee.png"
       inkscape:export-xdpi="13.939825"
       inkscape:export-ydpi="13.939825"
       inkscape:connector-curvature="0" />
    <path
       style="fill:none;stroke:#000000;stroke-width:16;stroke-linecap:butt;stroke-linejoin:miter;stroke-miterlimit:4;stroke-dasharray:none;stroke-opacity:1"
       d="m 7.4294283,61.939665 c 79.8076347,92.706875 140.5460617,62.514055 196.2694817,0"
       id="path5769"
       inkscape:connector-curvature="0"
       sodipodi:nodetypes="cc"
       inkscape:export-filename="C:\Users\asus\Desktop\bee.png"
       inkscape:export-xdpi="13.939825"
       inkscape:export-ydpi="13.939825" />
    <rect
       style="opacity:1;fill:#ffc200;fill-opacity:1;fill-rule:evenodd;stroke:#000000;stroke-width:0.86500001;stroke-miterlimit:4;stroke-dasharray:none;stroke-dashoffset:0;stroke-opacity:1"
       id="rect5826"
       width="0"
       height="3.1237125"
       x="80.648582"
       y="160.59232"
       rx="0"
       ry="0.89689255" />
    <path
       style="opacity:1;fill:#000000;fill-opacity:1;fill-rule:evenodd;stroke:#000000;stroke-width:0.29190102;stroke-miterlimit:4;stroke-dasharray:none;stroke-dashoffset:0;stroke-opacity:1"
       d=""
       id="path5899"
       inkscape:connector-curvature="0"
       transform="scale(0.26458333)" />
    <path
       id="path5903"
       style="opacity:1;fill:#000000;fill-opacity:1;fill-rule:evenodd;stroke:#000000;stroke-width:0.60036826;stroke-miterlimit:4;stroke-dasharray:none;stroke-dashoffset:0;stroke-opacity:1"
       d="m -5.0272059,164.06612 c -0.512208,0 -0.932271,0.074 -0.932271,0.14964 0,0.48169 3.819195,11.34215 5.85816703,16.65808 C 9.0413171,204.70992 20.291,225.53169 32.8992,241.94822 c 2.45408,3.19523 5.29459,6.60486 8.33242,10.00974 1.41938,1.59093 3.26231,3.75745 4.09684,4.81237 5.75319,7.27237 13.69854,13.69462 22.66809,18.32873 7.02173,3.62784 18.94748,7.52934 26.54237,8.67929 1.29772,0.19702 2.43311,0.39704 2.52261,0.44541 0.23388,0.12591 2.53607,6.57911 3.76136,10.54006 l 1.04519,3.37662 0.34197,-0.6653 c 0.54598,-1.05937 0.58984,-0.45549 0.0549,0.75009 -0.8706,1.9623 -3.3045,6.32043 -4.64524,8.31405 -0.7417,1.10295 -2.39387,3.10655 -3.80973,4.6272 -1.37447,1.47617 -2.46846,2.69838 -2.43228,2.71632 0.0362,0.015 1.12825,0.22069 2.42582,0.4454 4.15659,0.71963 5.21618,0.43383 7.41626,-2.00101 1.13867,-1.26007 3.04047,-4.15243 3.68394,-5.60263 0.24977,-0.56236 1.562,-3.07628 2.91616,-5.58272 4.00752,-7.41783 5.47657,-10.58823 6.48075,-13.98178 0.47565,-1.60766 0.90358,-2.99499 0.95163,-3.08639 0.0479,-0.0907 1.11599,-0.36983 2.37102,-0.62081 8.83202,-1.7606 17.07365,-5.11636 26.39397,-10.74029 6.41907,-3.87313 8.02577,-4.89087 10.36468,-6.57322 4.42532,-3.18287 7.58607,-6.16644 9.17434,-8.65902 0.48662,-0.76406 1.74565,-2.302 2.80005,-3.41664 16.76118,-17.72088 31.64418,-42.80304 43.22651,-72.85005 2.05308,-5.3263 4.32363,-11.62889 5.49683,-15.26233 l 0.60972,-1.88595 h -0.94196 -0.94194 l -1.98391,5.6577 c -11.88023,33.85473 -27.16411,61.16799 -45.21362,80.80388 -1.03032,1.12079 -1.96131,2.03605 -2.07099,2.03605 -0.10971,0 -0.38357,0.30937 -0.60971,0.68586 -0.34164,0.56724 -0.5197,0.67593 -1.05486,0.65536 -0.37281,-0.0151 -2.07081,0.57305 -4.03555,1.39575 -20.87451,8.74193 -40.38787,13.04268 -57.95577,12.77114 l -5.16138,-0.0821 -0.16773,-0.0907 c -0.0468,-0.0151 -0.096,-0.003 -0.14193,-0.0354 -0.009,-0.006 0.0334,-0.006 0.026,-0.01 -0.3099,-0.13756 -0.13678,-0.0151 -0.29356,-0.134 -0.096,-4e-4 -0.19444,-9.5e-4 -0.29037,0 -0.0648,4.2e-4 -0.12901,-0.006 -0.19358,-0.006 -0.015,0.0151 -0.0181,0.0352 -0.0357,0.0574 -0.11033,0.12892 -0.28047,0.01 -0.41292,-0.0403 -0.002,-9.6e-4 -0.007,-0.003 -0.01,-0.006 -0.20875,0.003 -0.42256,0.1159 -0.62583,-0.0252 -0.16251,-0.0821 -0.18503,-0.0741 -0.25488,-0.0907 -0.0494,0.0252 -0.0964,0.0574 -0.12256,0.006 -0.0125,-0.0252 -0.005,-0.0151 -0.016,-0.0403 -0.10583,-0.0252 -0.213,-0.0352 -0.31937,-0.0574 -0.0329,-1.1e-4 -0.0668,1e-4 -0.1,0 0.0499,0.33908 -0.0909,0.33355 -0.60325,0.26099 -0.39278,-0.0574 -1.61155,-0.2091 -2.70649,-0.3401 -6.84198,-0.82085 -13.51463,-2.52314 -20.12938,-5.13732 -7.20653,-2.84811 -13.2479,-6.11575 -22.41325,-12.1208 -5.3232,-3.48779 -6.65866,-4.18532 -7.18722,-3.74691 -0.22791,0.18844 -0.5572,-0.11344 -1.92583,-1.77586 -15.76139,-19.1413 -29.0554509,-43.92715 -39.5942059,-73.83056 -0.975192,-2.767 -1.890664,-5.42114 -2.035503,-5.89275 -0.26323,-0.85722 -0.262693,-0.8554 -1.193579,-0.8554 z M 103.08422,306.53471 c 0.0357,0 0.10796,0.1048 0.15812,0.23026 0.0499,0.12495 0.0181,0.22572 -0.0676,0.22572 -0.086,0 -0.15496,-0.10029 -0.15496,-0.22572 0,-0.12495 0.0287,-0.23026 0.0647,-0.23026 z m 0.96777,0.45447 c 0.0811,0 0.14837,0.10427 0.14837,0.22976 0,0.12495 -0.0674,0.23027 -0.14837,0.23027 -0.0811,0 -0.14837,-0.10427 -0.14837,-0.23027 0,-0.12495 0.0673,-0.22976 0.14837,-0.22976 z"
       inkscape:connector-curvature="0"
       inkscape:export-filename="C:\Users\asus\Desktop\bee.png"
       inkscape:export-xdpi="13.939825"
       inkscape:export-ydpi="13.939825" />
    <path
       style="opacity:1;fill:#ffffff;fill-opacity:1;fill-rule:evenodd;stroke:#000000;stroke-width:6.36556959;stroke-miterlimit:4;stroke-dasharray:none;stroke-dashoffset:0;stroke-opacity:1"
       d="m 98.91489,-65.355055 a 35.287852,35.519012 0 0 1 -35.28784,35.51902 35.287852,35.519012 0 0 1 -35.28785,-35.51902 35.287852,35.519012 0 0 1 35.28785,-35.518995 35.287852,35.519012 0 0 1 35.28784,35.518995 z"
       id="path5984"
       inkscape:export-filename="C:\Users\asus\Desktop\bee.png"
       inkscape:export-xdpi="13.939825"
       inkscape:export-ydpi="13.939825"
       inkscape:connector-curvature="0" />
    <path
       style="opacity:1;fill:#ffffff;fill-opacity:1;fill-rule:evenodd;stroke:#000000;stroke-width:6.36556959;stroke-miterlimit:4;stroke-dasharray:none;stroke-dashoffset:0;stroke-opacity:1"
       d="m 192.75762,-62.661729 a 35.287852,35.519012 0 0 1 -35.28786,35.51903 35.287852,35.519012 0 0 1 -35.28786,-35.51903 35.287852,35.519012 0 0 1 35.28786,-35.519004 35.287852,35.519012 0 0 1 35.28786,35.519004 z"
       id="ellipse5986"
       inkscape:export-filename="C:\Users\asus\Desktop\bee.png"
       inkscape:export-xdpi="13.939825"
       inkscape:export-ydpi="13.939825"
       inkscape:connector-curvature="0" />
    <path
       style="opacity:1;fill:#000000;fill-opacity:1;fill-rule:evenodd;stroke:#000000;stroke-width:3.60428405;stroke-miterlimit:4;stroke-dasharray:none;stroke-dashoffset:0;stroke-opacity:1"
       d="M 88.56975,-63.283447 A 13.12715,13.604941 36.569434 0 1 72.29304,-53.20601 13.12715,13.604941 36.569434 0 1 62.8707,-69.317081 13.12715,13.604941 36.569434 0 1 79.14741,-79.394523 13.12715,13.604941 36.569434 0 1 88.56975,-63.283447 Z"
       id="path5990"
       inkscape:export-filename="C:\Users\asus\Desktop\bee.png"
       inkscape:export-xdpi="13.939825"
       inkscape:export-ydpi="13.939825"
       inkscape:connector-curvature="0" />
    <path
       style="opacity:1;fill:#ffffff;fill-opacity:1;fill-rule:evenodd;stroke:#ffffff;stroke-width:4.47842026;stroke-miterlimit:4;stroke-dasharray:none;stroke-dashoffset:0;stroke-opacity:1"
       d="m 85.582434,-77.33882 a 3.0162192,2.8567082 0 0 1 -3.01621,2.8567 3.0162192,2.8567082 0 0 1 -3.01622,-2.8567 3.0162192,2.8567082 0 0 1 3.01622,-2.85671 3.0162192,2.8567082 0 0 1 3.01621,2.85671 z"
       id="path5994"
       inkscape:export-filename="C:\Users\asus\Desktop\bee.png"
       inkscape:export-xdpi="13.939825"
       inkscape:export-ydpi="13.939825"
       inkscape:connector-curvature="0" />
    <path
       style="fill:none;fill-opacity:1;stroke:#000000;stroke-width:5.18646574;stroke-linecap:butt;stroke-linejoin:miter;stroke-miterlimit:4;stroke-dasharray:none;stroke-opacity:1"
       d="M 72.683025,-17.456701 C 96.351211,17.328148 133.53541,4.81826 146.51526,-16.504454"
       id="path6002"
       inkscape:connector-curvature="0"
       sodipodi:nodetypes="cc"
       inkscape:export-filename="C:\Users\asus\Desktop\bee.png"
       inkscape:export-xdpi="13.939825"
       inkscape:export-ydpi="13.939825" />
    <path
       style="opacity:1;fill:#000000;fill-opacity:1;fill-rule:evenodd;stroke:#000000;stroke-width:3.60428405;stroke-miterlimit:4;stroke-dasharray:none;stroke-dashoffset:0;stroke-opacity:1"
       d="m 160.75559,-69.24392 a 13.675698,13.059231 46.580892 0 1 -7.7301,16.899814 13.675698,13.059231 46.580892 0 1 -17.23092,-8.536577 13.675698,13.059231 46.580892 0 1 7.7301,-16.899813 13.675698,13.059231 46.580892 0 1 17.23092,8.536576 z"
       id="ellipse6037"
       inkscape:export-filename="C:\Users\asus\Desktop\bee.png"
       inkscape:export-xdpi="13.939825"
       inkscape:export-ydpi="13.939825"
       inkscape:connector-curvature="0" />
    <path
       inkscape:connector-curvature="0"
       inkscape:export-ydpi="13.939825"
       inkscape:export-xdpi="13.939825"
       inkscape:export-filename="C:\Users\asus\Desktop\bee.png"
       id="path6056"
       d="m 144.20035,-149.67306 a 10.08384,14.354109 41.468755 0 1 -17.15804,5.33463 10.08384,14.354109 41.468755 0 1 0.70405,-17.09084 10.08384,14.354109 41.468755 0 1 17.15804,-5.33464 10.08384,14.354109 41.468755 0 1 -0.70405,17.09085 z"
       style="opacity:1;fill:#000000;fill-opacity:1;fill-rule:evenodd;stroke:none;stroke-width:4.47842026;stroke-miterlimit:4;stroke-dasharray:none;stroke-dashoffset:0;stroke-opacity:1" />
    <path
       inkscape:export-ydpi="13.939825"
       inkscape:export-xdpi="13.939825"
       inkscape:export-filename="C:\Users\asus\Desktop\bee.png"
       sodipodi:nodetypes="cc"
       inkscape:connector-curvature="0"
       id="path6058"
       d="m 130.93433,-109.21179 c -19.59214,-21.05661 -6.64963,-27.17623 0,-36.18496"
       style="fill:none;stroke:#000000;stroke-width:4.33712006;stroke-linecap:butt;stroke-linejoin:miter;stroke-miterlimit:4;stroke-dasharray:none;stroke-opacity:1" />
    <path
       style="opacity:1;fill:#000000;fill-opacity:1;fill-rule:evenodd;stroke:none;stroke-width:4.47842026;stroke-miterlimit:4;stroke-dasharray:none;stroke-dashoffset:0;stroke-opacity:1"
       d="m 115.33524,-152.8803 a 10.08384,14.354109 41.468755 0 1 -17.15804,5.33463 10.08384,14.354109 41.468755 0 1 0.70405,-17.09084 10.08384,14.354109 41.468755 0 1 17.15804,-5.33464 10.08384,14.354109 41.468755 0 1 -0.70405,17.09085 z"
       id="path6062"
       inkscape:export-filename="C:\Users\asus\Desktop\bee.png"
       inkscape:export-xdpi="13.939825"
       inkscape:export-ydpi="13.939825"
       inkscape:connector-curvature="0" />
    <path
       style="fill:none;stroke:#000000;stroke-width:4.58013058;stroke-linecap:butt;stroke-linejoin:miter;stroke-miterlimit:4;stroke-dasharray:none;stroke-opacity:1"
       d="m 103.26513,-112.41903 c -21.849157,-21.05661 -7.415674,-27.17623 0,-36.18496"
       id="path6064"
       inkscape:connector-curvature="0"
       sodipodi:nodetypes="cc"
       inkscape:export-filename="C:\Users\asus\Desktop\bee.png"
       inkscape:export-xdpi="13.939825"
       inkscape:export-ydpi="13.939825" />
    <path
       inkscape:connector-curvature="0"
       inkscape:export-ydpi="13.939825"
       inkscape:export-xdpi="13.939825"
       inkscape:export-filename="C:\Users\asus\Desktop\bee.png"
       id="path6066"
       d="m 141.14493,-74.16382 a 3.0162192,2.8567082 0 0 1 -3.01621,2.8567 3.0162192,2.8567082 0 0 1 -3.01622,-2.8567 3.0162192,2.8567082 0 0 1 3.01622,-2.85671 3.0162192,2.8567082 0 0 1 3.01621,2.85671 z"
       style="opacity:1;fill:#ffffff;fill-opacity:1;fill-rule:evenodd;stroke:#ffffff;stroke-width:4.47842026;stroke-miterlimit:4;stroke-dasharray:none;stroke-dashoffset:0;stroke-opacity:1" />
    <path
       sodipodi:nodetypes="cc"
       inkscape:connector-curvature="0"
       id="path5773"
       d="m -7.8198236,132.08524 c 91.9299076,102.60055 161.8940736,69.18539 226.0814536,0"
       style="fill:none;stroke:#000000;stroke-width:15.40923977;stroke-linecap:butt;stroke-linejoin:miter;stroke-miterlimit:4;stroke-dasharray:none;stroke-opacity:1"
       inkscape:export-filename="C:\Users\asus\Desktop\bee.png"
       inkscape:export-xdpi="13.939825"
       inkscape:export-ydpi="13.939825" />
  </g>
</svg>
