<?xml version="1.0" encoding="UTF-8" standalone="no"?>
<!-- Created with Inkscape (http://www.inkscape.org/) -->

<svg
   xmlns:dc="http://purl.org/dc/elements/1.1/"
   xmlns:cc="http://creativecommons.org/ns#"
   xmlns:rdf="http://www.w3.org/1999/02/22-rdf-syntax-ns#"
   xmlns:svg="http://www.w3.org/2000/svg"
   xmlns="http://www.w3.org/2000/svg"
   xmlns:sodipodi="http://sodipodi.sourceforge.net/DTD/sodipodi-0.dtd"
   xmlns:inkscape="http://www.inkscape.org/namespaces/inkscape"
   version="1.1"
   id="svg815"
   width="1066.6667"
   height="710.66669"
   viewBox="0 0 1066.6667 710.66669"
   sodipodi:docname="logos.svg"
   inkscape:version="0.92.3 (2405546, 2018-03-11)"
   inkscape:export-filename="E:\MY OWN WEB PROJECTS\KRZYSIEK\HONEYBEES\img\logos.png"
   inkscape:export-xdpi="95"
   inkscape:export-ydpi="95">
  <metadata
     id="metadata821">
    <rdf:RDF>
      <cc:Work
         rdf:about="">
        <dc:format>image/svg+xml</dc:format>
        <dc:type
           rdf:resource="http://purl.org/dc/dcmitype/StillImage" />
        <dc:title></dc:title>
      </cc:Work>
    </rdf:RDF>
  </metadata>
  <defs
     id="defs819">
    <inkscape:path-effect
       fuse_tolerance="0"
       vertical_pattern="false"
       prop_units="false"
       tang_offset="0"
       normal_offset="0"
       spacing="0"
       scale_y_rel="false"
       prop_scale="0.99999995"
       copytype="single_stretched"
       pattern="m -19.19126,1.4211 c 0,-2.76 2.24,-5 5,-5 2.76,0 5,2.24 5,5 0,2.76 -2.24,5 -5,5 -2.76,0 -5,-2.24 -5,-5 z"
       is_visible="true"
       id="path-effect6939"
       effect="skeletal" />
    <inkscape:path-effect
       effect="skeletal"
       id="path-effect6883"
       is_visible="true"
       pattern="m 5.00002,4.3750001 c 0,-2.76 2.24,-4.99999998 5,-4.99999998 2.76,0 5,2.23999998 5,4.99999998 0,2.76 -2.24,5 -5,5 -2.76,0 -5,-2.24 -5,-5 z"
       copytype="single_stretched"
       prop_scale="0.99999995"
       scale_y_rel="false"
       spacing="0"
       normal_offset="0"
       tang_offset="0"
       prop_units="false"
       vertical_pattern="false"
       fuse_tolerance="0" />
    <inkscape:path-effect
       effect="skeletal"
       id="path-effect6879"
       is_visible="true"
       pattern="m 3.3644999,-2.3461 c 0,-2.76 2.24,-5 5,-5 2.7600001,0 5.0000001,2.24 5.0000001,5 0,2.75999996 -2.24,5 -5.0000001,5 -2.76,0 -5,-2.24000004 -5,-5 z"
       copytype="single_stretched"
       prop_scale="0.99999995"
       scale_y_rel="false"
       spacing="0"
       normal_offset="0"
       tang_offset="0"
       prop_units="false"
       vertical_pattern="false"
       fuse_tolerance="0" />
    <inkscape:path-effect
       effect="skeletal"
       id="path-effect6875"
       is_visible="true"
       pattern="m 0.60299,11.2309 c 0,-2.76 2.24,-5 5,-5 2.76,0 5,2.24 5,5 0,2.76 -2.24,5 -5,5 -2.76,0 -5,-2.24 -5,-5 z"
       copytype="single_stretched"
       prop_scale="0.99999995"
       scale_y_rel="false"
       spacing="0"
       normal_offset="0"
       tang_offset="0"
       prop_units="false"
       vertical_pattern="false"
       fuse_tolerance="0" />
    <inkscape:path-effect
       effect="skeletal"
       id="path-effect6871"
       is_visible="true"
       pattern="m -4.98109,19.5119 c 0,-2.76 2.24,-5 5,-5 2.76,0 5,2.24 5,5 0,2.76 -2.24,5 -5,5 -2.76,0 -5,-2.24 -5,-5 z"
       copytype="single_stretched"
       prop_scale="0.99999995"
       scale_y_rel="false"
       spacing="0"
       normal_offset="0"
       tang_offset="0"
       prop_units="false"
       vertical_pattern="false"
       fuse_tolerance="0" />
    <inkscape:path-effect
       effect="skeletal"
       id="path-effect6867"
       is_visible="true"
       pattern="M 0,5 C 0,2.24 2.24,0 5,0 7.76,0 10,2.24 10,5 10,7.76 7.76,10 5,10 2.24,10 0,7.76 0,5 Z"
       copytype="single_stretched"
       prop_scale="0.99999995"
       scale_y_rel="false"
       spacing="0"
       normal_offset="0"
       tang_offset="0"
       prop_units="false"
       vertical_pattern="false"
       fuse_tolerance="0" />
    <inkscape:path-effect
       effect="bspline"
       id="path-effect6769"
       is_visible="true"
       weight="33.333333"
       steps="2"
       helper_size="0"
       apply_no_weight="true"
       apply_with_weight="true"
       only_selected="false" />
    <inkscape:path-effect
       effect="simplify"
       id="path-effect6767"
       is_visible="true"
       steps="1"
       threshold="0.5"
       smooth_angles="360"
       helper_size="0"
       simplify_individual_paths="false"
       simplify_just_coalesce="false"
       simplifyindividualpaths="false"
       simplifyJustCoalesce="false" />
    <inkscape:path-effect
       effect="bspline"
       id="path-effect6763"
       is_visible="true"
       weight="33.333333"
       steps="2"
       helper_size="0"
       apply_no_weight="true"
       apply_with_weight="true"
       only_selected="false" />
    <inkscape:path-effect
       effect="simplify"
       id="path-effect6761"
       is_visible="true"
       steps="1"
       threshold="0.5"
       smooth_angles="360"
       helper_size="0"
       simplify_individual_paths="false"
       simplify_just_coalesce="false"
       simplifyindividualpaths="false"
       simplifyJustCoalesce="false" />
    <inkscape:path-effect
       effect="bspline"
       id="path-effect6757"
       is_visible="true"
       weight="33.333333"
       steps="2"
       helper_size="0"
       apply_no_weight="true"
       apply_with_weight="true"
       only_selected="false" />
    <inkscape:path-effect
       effect="simplify"
       id="path-effect6755"
       is_visible="true"
       steps="1"
       threshold="0.5"
       smooth_angles="360"
       helper_size="0"
       simplify_individual_paths="false"
       simplify_just_coalesce="false"
       simplifyindividualpaths="false"
       simplifyJustCoalesce="false" />
    <inkscape:path-effect
       effect="skeletal"
       id="path-effect6677"
       is_visible="true"
       pattern="m 50,10 c 0,-2.76 2.24,-5 5,-5 2.76,0 5,2.24 5,5 0,2.76 -2.24,5 -5,5 -2.76,0 -5,-2.24 -5,-5 z"
       copytype="single_stretched"
       prop_scale="1.8961155"
       scale_y_rel="false"
       spacing="0"
       normal_offset="0"
       tang_offset="0"
       prop_units="false"
       vertical_pattern="false"
       fuse_tolerance="0" />
    <inkscape:path-effect
       effect="skeletal"
       id="path-effect6673"
       is_visible="true"
       pattern="m 50,10 c 0,-2.76 2.24,-5 5,-5 2.76,0 5,2.24 5,5 0,2.76 -2.24,5 -5,5 -2.76,0 -5,-2.24 -5,-5 z"
       copytype="single_stretched"
       prop_scale="1.8961155"
       scale_y_rel="false"
       spacing="0"
       normal_offset="0"
       tang_offset="0"
       prop_units="false"
       vertical_pattern="false"
       fuse_tolerance="0" />
    <inkscape:path-effect
       effect="skeletal"
       id="path-effect6669"
       is_visible="true"
       pattern="m 49.375,13.125 c 0,-2.76 2.24,-5 5,-5 2.76,0 5,2.24 5,5 0,2.76 -2.24,5 -5,5 -2.76,0 -5,-2.24 -5,-5 z"
       copytype="single_stretched"
       prop_scale="1.8961155"
       scale_y_rel="false"
       spacing="0"
       normal_offset="0"
       tang_offset="0"
       prop_units="false"
       vertical_pattern="false"
       fuse_tolerance="0" />
    <inkscape:path-effect
       effect="skeletal"
       id="path-effect6665"
       is_visible="true"
       pattern="m 362.67802,258.13802 c 0,-2.76 2.24,-5 5,-5 2.76,0 5,2.24 5,5 0,2.76 -2.24,5 -5,5 -2.76,0 -5,-2.24 -5,-5 z"
       copytype="single_stretched"
       prop_scale="2.3691419"
       scale_y_rel="false"
       spacing="0"
       normal_offset="0"
       tang_offset="0"
       prop_units="false"
       vertical_pattern="false"
       fuse_tolerance="0" />
    <inkscape:path-effect
       effect="bspline"
       id="path-effect6661"
       is_visible="true"
       weight="33.333333"
       steps="2"
       helper_size="0"
       apply_no_weight="true"
       apply_with_weight="true"
       only_selected="false" />
    <inkscape:path-effect
       effect="simplify"
       id="path-effect6659"
       is_visible="true"
       steps="1"
       threshold="0.5"
       smooth_angles="360"
       helper_size="0"
       simplify_individual_paths="false"
       simplify_just_coalesce="false"
       simplifyindividualpaths="false"
       simplifyJustCoalesce="false" />
    <inkscape:path-effect
       effect="bspline"
       id="path-effect6655"
       is_visible="true"
       weight="33.333333"
       steps="2"
       helper_size="0"
       apply_no_weight="true"
       apply_with_weight="true"
       only_selected="false" />
    <inkscape:path-effect
       effect="simplify"
       id="path-effect6653"
       is_visible="true"
       steps="1"
       threshold="0.5"
       smooth_angles="360"
       helper_size="0"
       simplify_individual_paths="false"
       simplify_just_coalesce="false"
       simplifyindividualpaths="false"
       simplifyJustCoalesce="false" />
    <inkscape:path-effect
       effect="bspline"
       id="path-effect6649"
       is_visible="true"
       weight="33.333333"
       steps="2"
       helper_size="0"
       apply_no_weight="true"
       apply_with_weight="true"
       only_selected="false" />
    <inkscape:path-effect
       effect="simplify"
       id="path-effect6647"
       is_visible="true"
       steps="1"
       threshold="0.5"
       smooth_angles="360"
       helper_size="0"
       simplify_individual_paths="false"
       simplify_just_coalesce="false"
       simplifyindividualpaths="false"
       simplifyJustCoalesce="false" />
    <inkscape:path-effect
       effect="bspline"
       id="path-effect6643"
       is_visible="true"
       weight="33.333333"
       steps="2"
       helper_size="0"
       apply_no_weight="true"
       apply_with_weight="true"
       only_selected="false" />
    <inkscape:path-effect
       effect="simplify"
       id="path-effect6641"
       is_visible="true"
       steps="1"
       threshold="0.5"
       smooth_angles="360"
       helper_size="0"
       simplify_individual_paths="false"
       simplify_just_coalesce="false"
       simplifyindividualpaths="false"
       simplifyJustCoalesce="false" />
    <inkscape:path-effect
       effect="bspline"
       id="path-effect6637"
       is_visible="true"
       weight="33.333333"
       steps="2"
       helper_size="0"
       apply_no_weight="true"
       apply_with_weight="true"
       only_selected="false" />
    <inkscape:path-effect
       effect="simplify"
       id="path-effect6635"
       is_visible="true"
       steps="1"
       threshold="0.5"
       smooth_angles="360"
       helper_size="0"
       simplify_individual_paths="false"
       simplify_just_coalesce="false"
       simplifyindividualpaths="false"
       simplifyJustCoalesce="false" />
    <inkscape:path-effect
       effect="bspline"
       id="path-effect6631"
       is_visible="true"
       weight="33.333333"
       steps="2"
       helper_size="0"
       apply_no_weight="true"
       apply_with_weight="true"
       only_selected="false" />
    <inkscape:path-effect
       effect="simplify"
       id="path-effect6629"
       is_visible="true"
       steps="1"
       threshold="0.5"
       smooth_angles="360"
       helper_size="0"
       simplify_individual_paths="false"
       simplify_just_coalesce="false"
       simplifyindividualpaths="false"
       simplifyJustCoalesce="false" />
    <inkscape:path-effect
       effect="bspline"
       id="path-effect6625"
       is_visible="true"
       weight="33.333333"
       steps="2"
       helper_size="0"
       apply_no_weight="true"
       apply_with_weight="true"
       only_selected="false" />
    <inkscape:path-effect
       effect="simplify"
       id="path-effect6623"
       is_visible="true"
       steps="1"
       threshold="0.5"
       smooth_angles="360"
       helper_size="0"
       simplify_individual_paths="false"
       simplify_just_coalesce="false"
       simplifyindividualpaths="false"
       simplifyJustCoalesce="false" />
    <inkscape:path-effect
       effect="bspline"
       id="path-effect6619"
       is_visible="true"
       weight="33.333333"
       steps="2"
       helper_size="0"
       apply_no_weight="true"
       apply_with_weight="true"
       only_selected="false" />
    <inkscape:path-effect
       effect="simplify"
       id="path-effect6617"
       is_visible="true"
       steps="1"
       threshold="0.5"
       smooth_angles="360"
       helper_size="0"
       simplify_individual_paths="false"
       simplify_just_coalesce="false"
       simplifyindividualpaths="false"
       simplifyJustCoalesce="false" />
    <inkscape:path-effect
       effect="bspline"
       id="path-effect6613"
       is_visible="true"
       weight="33.333333"
       steps="2"
       helper_size="0"
       apply_no_weight="true"
       apply_with_weight="true"
       only_selected="false" />
    <inkscape:path-effect
       effect="simplify"
       id="path-effect6611"
       is_visible="true"
       steps="1"
       threshold="0.5"
       smooth_angles="360"
       helper_size="0"
       simplify_individual_paths="false"
       simplify_just_coalesce="false"
       simplifyindividualpaths="false"
       simplifyJustCoalesce="false" />
    <inkscape:path-effect
       effect="bspline"
       id="path-effect6607"
       is_visible="true"
       weight="33.333333"
       steps="2"
       helper_size="0"
       apply_no_weight="true"
       apply_with_weight="true"
       only_selected="false" />
    <inkscape:path-effect
       effect="simplify"
       id="path-effect6605"
       is_visible="true"
       steps="1"
       threshold="0.5"
       smooth_angles="360"
       helper_size="0"
       simplify_individual_paths="false"
       simplify_just_coalesce="false"
       simplifyindividualpaths="false"
       simplifyJustCoalesce="false" />
    <inkscape:path-effect
       effect="bspline"
       id="path-effect6549"
       is_visible="true"
       weight="33.333333"
       steps="2"
       helper_size="0"
       apply_no_weight="true"
       apply_with_weight="true"
       only_selected="false" />
    <inkscape:path-effect
       effect="simplify"
       id="path-effect6547"
       is_visible="true"
       steps="1"
       threshold="0.5"
       smooth_angles="360"
       helper_size="0"
       simplify_individual_paths="false"
       simplify_just_coalesce="false"
       simplifyindividualpaths="false"
       simplifyJustCoalesce="false" />
    <inkscape:path-effect
       effect="bspline"
       id="path-effect6543"
       is_visible="true"
       weight="33.333333"
       steps="2"
       helper_size="0"
       apply_no_weight="true"
       apply_with_weight="true"
       only_selected="false" />
    <inkscape:path-effect
       effect="simplify"
       id="path-effect6541"
       is_visible="true"
       steps="1"
       threshold="0.5"
       smooth_angles="360"
       helper_size="0"
       simplify_individual_paths="false"
       simplify_just_coalesce="false"
       simplifyindividualpaths="false"
       simplifyJustCoalesce="false" />
    <inkscape:path-effect
       effect="bspline"
       id="path-effect6537"
       is_visible="true"
       weight="33.333333"
       steps="2"
       helper_size="0"
       apply_no_weight="true"
       apply_with_weight="true"
       only_selected="false" />
    <inkscape:path-effect
       effect="simplify"
       id="path-effect6535"
       is_visible="true"
       steps="1"
       threshold="0.5"
       smooth_angles="360"
       helper_size="0"
       simplify_individual_paths="false"
       simplify_just_coalesce="false"
       simplifyindividualpaths="false"
       simplifyJustCoalesce="false" />
    <inkscape:path-effect
       effect="bspline"
       id="path-effect6531"
       is_visible="true"
       weight="33.333333"
       steps="2"
       helper_size="0"
       apply_no_weight="true"
       apply_with_weight="true"
       only_selected="false" />
    <inkscape:path-effect
       effect="simplify"
       id="path-effect6529"
       is_visible="true"
       steps="1"
       threshold="0.5"
       smooth_angles="360"
       helper_size="0"
       simplify_individual_paths="false"
       simplify_just_coalesce="false"
       simplifyindividualpaths="false"
       simplifyJustCoalesce="false" />
    <inkscape:path-effect
       effect="bspline"
       id="path-effect6525"
       is_visible="true"
       weight="33.333333"
       steps="2"
       helper_size="0"
       apply_no_weight="true"
       apply_with_weight="true"
       only_selected="false" />
    <inkscape:path-effect
       effect="simplify"
       id="path-effect6523"
       is_visible="true"
       steps="1"
       threshold="0.5"
       smooth_angles="360"
       helper_size="0"
       simplify_individual_paths="false"
       simplify_just_coalesce="false"
       simplifyindividualpaths="false"
       simplifyJustCoalesce="false" />
    <inkscape:path-effect
       effect="bspline"
       id="path-effect6519"
       is_visible="true"
       weight="33.333333"
       steps="2"
       helper_size="0"
       apply_no_weight="true"
       apply_with_weight="true"
       only_selected="false" />
    <inkscape:path-effect
       effect="simplify"
       id="path-effect6517"
       is_visible="true"
       steps="1"
       threshold="0.5"
       smooth_angles="360"
       helper_size="0"
       simplify_individual_paths="false"
       simplify_just_coalesce="false"
       simplifyindividualpaths="false"
       simplifyJustCoalesce="false" />
    <inkscape:path-effect
       effect="skeletal"
       id="path-effect6503"
       is_visible="true"
       pattern="m 4.52735,3.9164 c 0,-2.76 2.24,-5 5,-5 2.76,0 5,2.24 5,5 0,2.76 -2.24,5 -5,5 -2.76,0 -5,-2.24 -5,-5 z"
       copytype="single_stretched"
       prop_scale="0.99999995"
       scale_y_rel="false"
       spacing="0"
       normal_offset="0"
       tang_offset="0"
       prop_units="false"
       vertical_pattern="false"
       fuse_tolerance="0" />
    <inkscape:path-effect
       effect="bspline"
       id="path-effect6499"
       is_visible="true"
       weight="33.333333"
       steps="2"
       helper_size="0"
       apply_no_weight="true"
       apply_with_weight="true"
       only_selected="false" />
    <inkscape:path-effect
       effect="simplify"
       id="path-effect6497"
       is_visible="true"
       steps="1"
       threshold="0.5"
       smooth_angles="360"
       helper_size="0"
       simplify_individual_paths="false"
       simplify_just_coalesce="false"
       simplifyindividualpaths="false"
       simplifyJustCoalesce="false" />
    <inkscape:path-effect
       effect="bspline"
       id="path-effect6493"
       is_visible="true"
       weight="33.333333"
       steps="2"
       helper_size="0"
       apply_no_weight="true"
       apply_with_weight="true"
       only_selected="false" />
    <inkscape:path-effect
       effect="simplify"
       id="path-effect6491"
       is_visible="true"
       steps="1"
       threshold="0.5"
       smooth_angles="360"
       helper_size="0"
       simplify_individual_paths="false"
       simplify_just_coalesce="false"
       simplifyindividualpaths="false"
       simplifyJustCoalesce="false" />
    <inkscape:path-effect
       effect="bspline"
       id="path-effect6487"
       is_visible="true"
       weight="33.333333"
       steps="2"
       helper_size="0"
       apply_no_weight="true"
       apply_with_weight="true"
       only_selected="false" />
    <inkscape:path-effect
       effect="simplify"
       id="path-effect6485"
       is_visible="true"
       steps="1"
       threshold="0.5"
       smooth_angles="360"
       helper_size="0"
       simplify_individual_paths="false"
       simplify_just_coalesce="false"
       simplifyindividualpaths="false"
       simplifyJustCoalesce="false" />
    <inkscape:path-effect
       effect="bspline"
       id="path-effect6481"
       is_visible="true"
       weight="33.333333"
       steps="2"
       helper_size="0"
       apply_no_weight="true"
       apply_with_weight="true"
       only_selected="false" />
    <inkscape:path-effect
       effect="simplify"
       id="path-effect6479"
       is_visible="true"
       steps="1"
       threshold="0.5"
       smooth_angles="360"
       helper_size="0"
       simplify_individual_paths="false"
       simplify_just_coalesce="false"
       simplifyindividualpaths="false"
       simplifyJustCoalesce="false" />
    <inkscape:path-effect
       effect="bspline"
       id="path-effect6475"
       is_visible="true"
       weight="33.333333"
       steps="2"
       helper_size="0"
       apply_no_weight="true"
       apply_with_weight="true"
       only_selected="false" />
    <inkscape:path-effect
       effect="simplify"
       id="path-effect6473"
       is_visible="true"
       steps="1"
       threshold="0.5"
       smooth_angles="360"
       helper_size="0"
       simplify_individual_paths="false"
       simplify_just_coalesce="false"
       simplifyindividualpaths="false"
       simplifyJustCoalesce="false" />
    <inkscape:path-effect
       effect="bspline"
       id="path-effect6469"
       is_visible="true"
       weight="33.333333"
       steps="2"
       helper_size="0"
       apply_no_weight="true"
       apply_with_weight="true"
       only_selected="false" />
    <inkscape:path-effect
       effect="simplify"
       id="path-effect6467"
       is_visible="true"
       steps="1"
       threshold="0.5"
       smooth_angles="360"
       helper_size="0"
       simplify_individual_paths="false"
       simplify_just_coalesce="false"
       simplifyindividualpaths="false"
       simplifyJustCoalesce="false" />
    <inkscape:path-effect
       effect="bspline"
       id="path-effect6463"
       is_visible="true"
       weight="33.333333"
       steps="2"
       helper_size="0"
       apply_no_weight="true"
       apply_with_weight="true"
       only_selected="false" />
    <inkscape:path-effect
       effect="simplify"
       id="path-effect6461"
       is_visible="true"
       steps="1"
       threshold="0.5"
       smooth_angles="360"
       helper_size="0"
       simplify_individual_paths="false"
       simplify_just_coalesce="false"
       simplifyindividualpaths="false"
       simplifyJustCoalesce="false" />
    <inkscape:path-effect
       effect="bspline"
       id="path-effect6457"
       is_visible="true"
       weight="33.333333"
       steps="2"
       helper_size="0"
       apply_no_weight="true"
       apply_with_weight="true"
       only_selected="false" />
    <inkscape:path-effect
       effect="simplify"
       id="path-effect6455"
       is_visible="true"
       steps="1"
       threshold="0.5"
       smooth_angles="360"
       helper_size="0"
       simplify_individual_paths="false"
       simplify_just_coalesce="false"
       simplifyindividualpaths="false"
       simplifyJustCoalesce="false" />
    <inkscape:path-effect
       effect="bspline"
       id="path-effect6451"
       is_visible="true"
       weight="33.333333"
       steps="2"
       helper_size="0"
       apply_no_weight="true"
       apply_with_weight="true"
       only_selected="false" />
    <inkscape:path-effect
       effect="simplify"
       id="path-effect6449"
       is_visible="true"
       steps="1"
       threshold="0.5"
       smooth_angles="360"
       helper_size="0"
       simplify_individual_paths="false"
       simplify_just_coalesce="false"
       simplifyindividualpaths="false"
       simplifyJustCoalesce="false" />
    <inkscape:path-effect
       effect="bspline"
       id="path-effect6445"
       is_visible="true"
       weight="33.333333"
       steps="2"
       helper_size="0"
       apply_no_weight="true"
       apply_with_weight="true"
       only_selected="false" />
    <inkscape:path-effect
       effect="simplify"
       id="path-effect6443"
       is_visible="true"
       steps="1"
       threshold="0.5"
       smooth_angles="360"
       helper_size="0"
       simplify_individual_paths="false"
       simplify_just_coalesce="false"
       simplifyindividualpaths="false"
       simplifyJustCoalesce="false" />
    <inkscape:path-effect
       effect="bspline"
       id="path-effect6439"
       is_visible="true"
       weight="33.333333"
       steps="2"
       helper_size="0"
       apply_no_weight="true"
       apply_with_weight="true"
       only_selected="false" />
    <inkscape:path-effect
       effect="simplify"
       id="path-effect6437"
       is_visible="true"
       steps="1"
       threshold="0.5"
       smooth_angles="360"
       helper_size="0"
       simplify_individual_paths="false"
       simplify_just_coalesce="false"
       simplifyindividualpaths="false"
       simplifyJustCoalesce="false" />
    <inkscape:path-effect
       effect="bspline"
       id="path-effect6433"
       is_visible="true"
       weight="33.333333"
       steps="2"
       helper_size="0"
       apply_no_weight="true"
       apply_with_weight="true"
       only_selected="false" />
    <inkscape:path-effect
       effect="simplify"
       id="path-effect6431"
       is_visible="true"
       steps="1"
       threshold="0.0389042"
       smooth_angles="360"
       helper_size="0"
       simplify_individual_paths="false"
       simplify_just_coalesce="false"
       simplifyindividualpaths="false"
       simplifyJustCoalesce="false" />
    <inkscape:path-effect
       effect="bspline"
       id="path-effect6427"
       is_visible="true"
       weight="33.333333"
       steps="2"
       helper_size="0"
       apply_no_weight="true"
       apply_with_weight="true"
       only_selected="false" />
    <inkscape:path-effect
       effect="simplify"
       id="path-effect6425"
       is_visible="true"
       steps="1"
       threshold="0.0389042"
       smooth_angles="360"
       helper_size="0"
       simplify_individual_paths="false"
       simplify_just_coalesce="false"
       simplifyindividualpaths="false"
       simplifyJustCoalesce="false" />
    <inkscape:path-effect
       effect="bspline"
       id="path-effect6421"
       is_visible="true"
       weight="33.333333"
       steps="2"
       helper_size="0"
       apply_no_weight="true"
       apply_with_weight="true"
       only_selected="false" />
    <inkscape:path-effect
       effect="simplify"
       id="path-effect6419"
       is_visible="true"
       steps="1"
       threshold="0.0389042"
       smooth_angles="360"
       helper_size="0"
       simplify_individual_paths="false"
       simplify_just_coalesce="false"
       simplifyindividualpaths="false"
       simplifyJustCoalesce="false" />
    <inkscape:path-effect
       effect="bspline"
       id="path-effect6415"
       is_visible="true"
       weight="33.333333"
       steps="2"
       helper_size="0"
       apply_no_weight="true"
       apply_with_weight="true"
       only_selected="false" />
    <inkscape:path-effect
       effect="simplify"
       id="path-effect6413"
       is_visible="true"
       steps="1"
       threshold="0.0389042"
       smooth_angles="360"
       helper_size="0"
       simplify_individual_paths="false"
       simplify_just_coalesce="false"
       simplifyindividualpaths="false"
       simplifyJustCoalesce="false" />
    <inkscape:path-effect
       effect="bspline"
       id="path-effect6409"
       is_visible="true"
       weight="33.333333"
       steps="2"
       helper_size="0"
       apply_no_weight="true"
       apply_with_weight="true"
       only_selected="false" />
    <inkscape:path-effect
       effect="simplify"
       id="path-effect6407"
       is_visible="true"
       steps="1"
       threshold="0.0389042"
       smooth_angles="360"
       helper_size="0"
       simplify_individual_paths="false"
       simplify_just_coalesce="false"
       simplifyindividualpaths="false"
       simplifyJustCoalesce="false" />
    <inkscape:path-effect
       effect="bspline"
       id="path-effect6403"
       is_visible="true"
       weight="33.333333"
       steps="2"
       helper_size="0"
       apply_no_weight="true"
       apply_with_weight="true"
       only_selected="false" />
    <inkscape:path-effect
       effect="simplify"
       id="path-effect6401"
       is_visible="true"
       steps="1"
       threshold="0.0389042"
       smooth_angles="360"
       helper_size="0"
       simplify_individual_paths="false"
       simplify_just_coalesce="false"
       simplifyindividualpaths="false"
       simplifyJustCoalesce="false" />
    <inkscape:path-effect
       effect="bspline"
       id="path-effect6397"
       is_visible="true"
       weight="33.333333"
       steps="2"
       helper_size="0"
       apply_no_weight="true"
       apply_with_weight="true"
       only_selected="false" />
    <inkscape:path-effect
       effect="simplify"
       id="path-effect6395"
       is_visible="true"
       steps="1"
       threshold="0.0389042"
       smooth_angles="360"
       helper_size="0"
       simplify_individual_paths="false"
       simplify_just_coalesce="false"
       simplifyindividualpaths="false"
       simplifyJustCoalesce="false" />
    <inkscape:path-effect
       effect="bspline"
       id="path-effect6391"
       is_visible="true"
       weight="33.333333"
       steps="2"
       helper_size="0"
       apply_no_weight="true"
       apply_with_weight="true"
       only_selected="false" />
    <inkscape:path-effect
       effect="simplify"
       id="path-effect6389"
       is_visible="true"
       steps="1"
       threshold="0.0389042"
       smooth_angles="360"
       helper_size="0"
       simplify_individual_paths="false"
       simplify_just_coalesce="false"
       simplifyindividualpaths="false"
       simplifyJustCoalesce="false" />
    <inkscape:path-effect
       effect="bspline"
       id="path-effect6385"
       is_visible="true"
       weight="33.333333"
       steps="2"
       helper_size="0"
       apply_no_weight="true"
       apply_with_weight="true"
       only_selected="false" />
    <inkscape:path-effect
       effect="simplify"
       id="path-effect6383"
       is_visible="true"
       steps="1"
       threshold="0.0389042"
       smooth_angles="360"
       helper_size="0"
       simplify_individual_paths="false"
       simplify_just_coalesce="false"
       simplifyindividualpaths="false"
       simplifyJustCoalesce="false" />
    <inkscape:path-effect
       effect="bspline"
       id="path-effect6379"
       is_visible="true"
       weight="33.333333"
       steps="2"
       helper_size="0"
       apply_no_weight="true"
       apply_with_weight="true"
       only_selected="false" />
    <inkscape:path-effect
       effect="simplify"
       id="path-effect6377"
       is_visible="true"
       steps="1"
       threshold="0.0389042"
       smooth_angles="360"
       helper_size="0"
       simplify_individual_paths="false"
       simplify_just_coalesce="false"
       simplifyindividualpaths="false"
       simplifyJustCoalesce="false" />
    <inkscape:path-effect
       effect="bspline"
       id="path-effect6373"
       is_visible="true"
       weight="33.333333"
       steps="2"
       helper_size="0"
       apply_no_weight="true"
       apply_with_weight="true"
       only_selected="false" />
    <inkscape:path-effect
       effect="simplify"
       id="path-effect6371"
       is_visible="true"
       steps="1"
       threshold="0.0389042"
       smooth_angles="360"
       helper_size="0"
       simplify_individual_paths="false"
       simplify_just_coalesce="false"
       simplifyindividualpaths="false"
       simplifyJustCoalesce="false" />
    <inkscape:path-effect
       effect="bspline"
       id="path-effect6367"
       is_visible="true"
       weight="33.333333"
       steps="2"
       helper_size="0"
       apply_no_weight="true"
       apply_with_weight="true"
       only_selected="false" />
    <inkscape:path-effect
       effect="simplify"
       id="path-effect6365"
       is_visible="true"
       steps="1"
       threshold="0.000408163"
       smooth_angles="360"
       helper_size="0"
       simplify_individual_paths="false"
       simplify_just_coalesce="false"
       simplifyindividualpaths="false"
       simplifyJustCoalesce="false" />
    <inkscape:path-effect
       effect="bspline"
       id="path-effect6361"
       is_visible="true"
       weight="33.333333"
       steps="2"
       helper_size="0"
       apply_no_weight="true"
       apply_with_weight="true"
       only_selected="false" />
    <inkscape:path-effect
       effect="simplify"
       id="path-effect6359"
       is_visible="true"
       steps="1"
       threshold="0.000408163"
       smooth_angles="360"
       helper_size="0"
       simplify_individual_paths="false"
       simplify_just_coalesce="false"
       simplifyindividualpaths="false"
       simplifyJustCoalesce="false" />
    <inkscape:path-effect
       effect="bspline"
       id="path-effect6355"
       is_visible="true"
       weight="33.333333"
       steps="2"
       helper_size="0"
       apply_no_weight="true"
       apply_with_weight="true"
       only_selected="false" />
    <inkscape:path-effect
       effect="simplify"
       id="path-effect6353"
       is_visible="true"
       steps="1"
       threshold="0.000408163"
       smooth_angles="360"
       helper_size="0"
       simplify_individual_paths="false"
       simplify_just_coalesce="false"
       simplifyindividualpaths="false"
       simplifyJustCoalesce="false" />
    <inkscape:path-effect
       effect="simplify"
       id="path-effect6349"
       is_visible="true"
       steps="1"
       threshold="0.000408163"
       smooth_angles="360"
       helper_size="0"
       simplify_individual_paths="false"
       simplify_just_coalesce="false"
       simplifyindividualpaths="false"
       simplifyJustCoalesce="false" />
    <inkscape:path-effect
       effect="simplify"
       id="path-effect6345"
       is_visible="true"
       steps="1"
       threshold="0.00406897"
       smooth_angles="360"
       helper_size="0"
       simplify_individual_paths="false"
       simplify_just_coalesce="false"
       simplifyindividualpaths="false"
       simplifyJustCoalesce="false" />
    <inkscape:path-effect
       effect="simplify"
       id="path-effect6341"
       is_visible="true"
       steps="1"
       threshold="0.00406897"
       smooth_angles="360"
       helper_size="0"
       simplify_individual_paths="false"
       simplify_just_coalesce="false"
       simplifyindividualpaths="false"
       simplifyJustCoalesce="false" />
    <inkscape:path-effect
       effect="simplify"
       id="path-effect6337"
       is_visible="true"
       steps="1"
       threshold="0.00406897"
       smooth_angles="360"
       helper_size="0"
       simplify_individual_paths="false"
       simplify_just_coalesce="false"
       simplifyindividualpaths="false"
       simplifyJustCoalesce="false" />
    <inkscape:path-effect
       effect="simplify"
       id="path-effect6333"
       is_visible="true"
       steps="1"
       threshold="0.00406897"
       smooth_angles="360"
       helper_size="0"
       simplify_individual_paths="false"
       simplify_just_coalesce="false"
       simplifyindividualpaths="false"
       simplifyJustCoalesce="false" />
    <inkscape:path-effect
       effect="simplify"
       id="path-effect6329"
       is_visible="true"
       steps="1"
       threshold="0.00406897"
       smooth_angles="360"
       helper_size="0"
       simplify_individual_paths="false"
       simplify_just_coalesce="false"
       simplifyindividualpaths="false"
       simplifyJustCoalesce="false" />
    <inkscape:path-effect
       effect="simplify"
       id="path-effect6325"
       is_visible="true"
       steps="1"
       threshold="0.00406897"
       smooth_angles="360"
       helper_size="0"
       simplify_individual_paths="false"
       simplify_just_coalesce="false"
       simplifyindividualpaths="false"
       simplifyJustCoalesce="false" />
    <inkscape:path-effect
       effect="simplify"
       id="path-effect6321"
       is_visible="true"
       steps="1"
       threshold="0.00406897"
       smooth_angles="360"
       helper_size="0"
       simplify_individual_paths="false"
       simplify_just_coalesce="false"
       simplifyindividualpaths="false"
       simplifyJustCoalesce="false" />
    <inkscape:path-effect
       effect="simplify"
       id="path-effect6317"
       is_visible="true"
       steps="1"
       threshold="0.00406897"
       smooth_angles="360"
       helper_size="0"
       simplify_individual_paths="false"
       simplify_just_coalesce="false"
       simplifyindividualpaths="false"
       simplifyJustCoalesce="false" />
    <inkscape:path-effect
       effect="simplify"
       id="path-effect6313"
       is_visible="true"
       steps="1"
       threshold="0.00406897"
       smooth_angles="360"
       helper_size="0"
       simplify_individual_paths="false"
       simplify_just_coalesce="false"
       simplifyindividualpaths="false"
       simplifyJustCoalesce="false" />
    <inkscape:path-effect
       effect="simplify"
       id="path-effect6309"
       is_visible="true"
       steps="1"
       threshold="0.00406897"
       smooth_angles="360"
       helper_size="0"
       simplify_individual_paths="false"
       simplify_just_coalesce="false"
       simplifyindividualpaths="false"
       simplifyJustCoalesce="false" />
    <inkscape:path-effect
       effect="simplify"
       id="path-effect6305"
       is_visible="true"
       steps="1"
       threshold="0.00406897"
       smooth_angles="360"
       helper_size="0"
       simplify_individual_paths="false"
       simplify_just_coalesce="false"
       simplifyindividualpaths="false"
       simplifyJustCoalesce="false" />
    <inkscape:path-effect
       effect="skeletal"
       id="path-effect6293"
       is_visible="true"
       pattern="m 371.53819,254.91065 c 0,-2.76 2.24,-5 5,-5 2.76,0 5,2.24 5,5 0,2.76 -2.24,5 -5,5 -2.76,0 -5,-2.24 -5,-5 z"
       copytype="single_stretched"
       prop_scale="2.1425746"
       scale_y_rel="false"
       spacing="0"
       normal_offset="0"
       tang_offset="0"
       prop_units="false"
       vertical_pattern="false"
       fuse_tolerance="0" />
    <inkscape:path-effect
       effect="skeletal"
       id="path-effect6289"
       is_visible="true"
       pattern="m 369.85649,260.15247 c 0,-2.76 2.24,-5 5,-5 2.76,0 5,2.24 5,5 0,2.76 -2.24,5 -5,5 -2.76,0 -5,-2.24 -5,-5 z"
       copytype="single_stretched"
       prop_scale="2.4431288"
       scale_y_rel="false"
       spacing="0"
       normal_offset="0"
       tang_offset="0"
       prop_units="false"
       vertical_pattern="false"
       fuse_tolerance="0" />
    <inkscape:path-effect
       effect="skeletal"
       id="path-effect6285"
       is_visible="true"
       pattern="m 371.81981,255 c 0,-2.76 2.24,-5 5,-5 2.76,0 5,2.24 5,5 0,2.76 -2.24,5 -5,5 -2.76,0 -5,-2.24 -5,-5 z"
       copytype="single_stretched"
       prop_scale="2.3109231"
       scale_y_rel="false"
       spacing="0"
       normal_offset="0"
       tang_offset="0"
       prop_units="false"
       vertical_pattern="false"
       fuse_tolerance="0" />
    <inkscape:path-effect
       effect="skeletal"
       id="path-effect6281"
       is_visible="true"
       pattern="m 375.00377,257.7951 c 0,-2.76 2.24,-5 5,-5 2.76,0 5,2.24 5,5 0,2.76 -2.24,5 -5,5 -2.76,0 -5,-2.24 -5,-5 z"
       copytype="single_stretched"
       prop_scale="2.0275987"
       scale_y_rel="false"
       spacing="0"
       normal_offset="0"
       tang_offset="0"
       prop_units="false"
       vertical_pattern="false"
       fuse_tolerance="0" />
    <inkscape:path-effect
       effect="skeletal"
       id="path-effect6277"
       is_visible="true"
       pattern="m 371.81981,255 c 0,-2.76 2.24,-5 5,-5 2.76,0 5,2.24 5,5 0,2.76 -2.24,5 -5,5 -2.76,0 -5,-2.24 -5,-5 z"
       copytype="single_stretched"
       prop_scale="2.2744375"
       scale_y_rel="false"
       spacing="0"
       normal_offset="0"
       tang_offset="0"
       prop_units="false"
       vertical_pattern="false"
       fuse_tolerance="0" />
    <inkscape:path-effect
       effect="skeletal"
       id="path-effect6273"
       is_visible="true"
       pattern="m 375.84046,253.48969 c 0,-2.76 2.24,-5 5,-5 2.76,0 5,2.24 5,5 0,2.76 -2.24,5 -5,5 -2.76,0 -5,-2.24 -5,-5 z"
       copytype="single_stretched"
       prop_scale="1.9406417"
       scale_y_rel="false"
       spacing="0"
       normal_offset="0"
       tang_offset="0"
       prop_units="false"
       vertical_pattern="false"
       fuse_tolerance="0" />
    <inkscape:path-effect
       effect="skeletal"
       id="path-effect5802"
       is_visible="true"
       pattern="M 0,5 C 0,2.24 2.24,0 5,0 7.76,0 10,2.24 10,5 10,7.76 7.76,10 5,10 2.24,10 0,7.76 0,5 Z"
       copytype="single_stretched"
       prop_scale="0.99999995"
       scale_y_rel="false"
       spacing="0"
       normal_offset="0"
       tang_offset="0"
       prop_units="false"
       vertical_pattern="false"
       fuse_tolerance="0" />
    <inkscape:path-effect
       effect="skeletal"
       id="path-effect5798"
       is_visible="true"
       pattern="M 0,5 C 0,2.24 2.24,0 5,0 7.76,0 10,2.24 10,5 10,7.76 7.76,10 5,10 2.24,10 0,7.76 0,5 Z"
       copytype="single_stretched"
       prop_scale="0.99999995"
       scale_y_rel="false"
       spacing="0"
       normal_offset="0"
       tang_offset="0"
       prop_units="false"
       vertical_pattern="false"
       fuse_tolerance="0" />
    <inkscape:path-effect
       effect="skeletal"
       id="path-effect5774"
       is_visible="true"
       pattern="m 45.60395,2.9143 c 0,-2.76 2.24,-5 5,-5 2.76,0 5,2.24 5,5 0,2.76 -2.24,5 -5,5 -2.76,0 -5,-2.24 -5,-5 z"
       copytype="single_stretched"
       prop_scale="1.2448922"
       scale_y_rel="false"
       spacing="0"
       normal_offset="0"
       tang_offset="0"
       prop_units="false"
       vertical_pattern="false"
       fuse_tolerance="0" />
    <inkscape:path-effect
       effect="skeletal"
       id="path-effect5770"
       is_visible="true"
       pattern="m 50,10 c 0,-2.76 2.24,-5 5,-5 2.76,0 5,2.24 5,5 0,2.76 -2.24,5 -5,5 -2.76,0 -5,-2.24 -5,-5 z"
       copytype="single_stretched"
       prop_scale="1.8961155"
       scale_y_rel="false"
       spacing="0"
       normal_offset="0"
       tang_offset="0"
       prop_units="false"
       vertical_pattern="false"
       fuse_tolerance="0" />
    <inkscape:path-effect
       effect="skeletal"
       id="path-effect5762"
       is_visible="true"
       pattern="m 50,10 c 0,-2.76 2.24,-5 5,-5 2.76,0 5,2.24 5,5 0,2.76 -2.24,5 -5,5 -2.76,0 -5,-2.24 -5,-5 z"
       copytype="single_stretched"
       prop_scale="1.8961155"
       scale_y_rel="false"
       spacing="0"
       normal_offset="0"
       tang_offset="0"
       prop_units="false"
       vertical_pattern="false"
       fuse_tolerance="0" />
  </defs>
  <sodipodi:namedview
     pagecolor="#ffffff"
     bordercolor="#666666"
     borderopacity="1"
     objecttolerance="10"
     gridtolerance="10"
     guidetolerance="10"
     inkscape:pageopacity="0"
     inkscape:pageshadow="2"
     inkscape:window-width="1440"
     inkscape:window-height="838"
     id="namedview817"
     showgrid="false"
     inkscape:zoom="1.1313708"
     inkscape:cx="553.86233"
     inkscape:cy="-554.49305"
     inkscape:window-x="1358"
     inkscape:window-y="-8"
     inkscape:window-maximized="1"
     inkscape:current-layer="svg815"
     showguides="false" />
  <path
     style="fill:#f9a116;stroke:none;stroke-width:1.89611566px;stroke-linecap:butt;stroke-linejoin:miter;stroke-opacity:1;fill-opacity:0.94117647"
     d="m 610.0917,1313.3691 c 0.10576,-5.2322 42.51387,-8.6232 94.66098,-7.5692 52.1471,1.054 94.38355,6.1559 94.2778,11.3881 -0.10576,5.2322 -42.51387,8.6232 -94.66098,7.5692 -52.1471,-1.054 -94.38356,-6.1559 -94.2778,-11.3881 z"
     id="path5760"
     inkscape:connector-curvature="0"
     inkscape:original-d="m 610.0917,1313.3691 188.93877,3.8189"
     inkscape:path-effect="#path-effect5762" />
  <path
     style="fill:#f9a116;stroke:none;stroke-width:1.89611566px;stroke-linecap:butt;stroke-linejoin:miter;stroke-opacity:1;fill-opacity:0.94117647"
     d="m 610.0917,1313.3691 c 0.46971,0.6211 -2.32919,3.1885 -6.74806,7.5564 -1.65881,1.6846 -3.89317,4.0905 -4.58607,6.6201 -0.85755,2.4127 -0.43523,5.376 0.73999,8.8668 0,0 0,0 0,0 1.93802,6.0008 5.29714,11.4233 10.09732,18.7644 10e-6,0 10e-6,0 10e-6,0 -7.34215,14.4218 -15.96744,34.2608 -20.71366,56.998 -3.36199,14.8533 -5.02493,31.6955 -2.9278,48.9403 10e-6,0 0,0 0,0 1.77555,14.8891 6.37529,30.1911 13.86214,44.9903 6.50169,14.4407 15.6774,28.0226 26.90769,40.8946 24.70938,0.2195 50.38362,0.5184 76.76383,0.9014 25.02942,0.3633 49.41895,0.7838 72.95488,1.2517 12.69124,-13.5023 23.22889,-27.6576 30.90723,-42.8819 8.22732,-14.7761 13.58632,-30.0327 15.86917,-45.0327 0,0 0,0 0,0 2.55108,-16.4578 1.39964,-32.6126 -1.6717,-46.9394 -4.043,-20.9619 -11.87885,-39.3308 -19.00548,-53.1356 0,0 0,0 10e-6,0 4.42721,-6.2412 7.63947,-11.3462 9.09148,-16.8093 1.06764,-3.4139 0.9858,-6.8211 -0.0898,-9.5096 -1.231,-3.4009 -4.0808,-6.412 -6.32313,-8.5493 -6.13276,-5.7548 -10.47347,-8.2927 -10.061,-9.1073 0.2212,-0.4369 5.31315,-0.066 13.25417,4.9225 2.98431,1.8477 6.87873,4.8661 9.58717,9.6177 2.19312,4.0856 3.14438,9.2914 2.01533,14.7097 -1.34947,5.8007 -4.62536,10.9229 -9.00889,15.3768 0,0 -10e-6,0 -10e-6,0 8.66942,12.7996 18.29841,29.6158 24.09678,49.1934 4.19274,15.5946 6.22511,33.5198 4.00813,52.3763 -10e-6,0 -10e-6,0 -10e-6,10e-5 -2.05756,17.1454 -7.54794,34.5473 -16.39299,51.2279 -10.34275,17.9812 -23.88519,34.6933 -39.81643,50.2819 -25.53598,-0.251 -52.16196,-0.5778 -79.49378,-0.9815 -28.80737,-0.4254 -56.83302,-0.9131 -83.62061,-1.448 -14.46086,-15.1369 -26.57884,-31.3814 -35.66311,-48.6456 -8.04269,-16.7904 -12.68818,-34.1787 -14.14796,-51.078 0,0 0,0 0,0 -1.65074,-19.5821 0.94748,-38.0471 5.44766,-54.0006 6.50372,-21.3465 16.9477,-39.643 25.8722,-53.1604 0,0 -1e-5,0 -1e-5,0 -4.40288,-5.4379 -7.68406,-10.8819 -9.29679,-16.9679 0,0 0,0 0,0 -1.25798,-4.797 -0.86036,-9.5963 1.00302,-13.5349 2.09528,-3.9547 5.27013,-6.3308 7.56554,-7.7192 5.69834,-3.5312 9.27153,-4.3223 9.52353,-3.9891 z"
     id="path5768"
     inkscape:connector-curvature="0"
     inkscape:original-d="m 610.0917,1313.3691 c -10.49469,7.9364 -25.85422,12.5736 -4.64605,42.0094 -44.19956,75.9213 -35.01879,141.7598 17.80979,199.3539 l 156.41655,2.2913 c 60.08506,-61.0676 68.19541,-126.3201 27.10187,-195.5346 20.2244,-24.5386 4.97432,-35.9015 -11.61509,-44.3011"
     sodipodi:nodetypes="cccccc"
     inkscape:path-effect="#path-effect5770" />
  <path
     style="fill:#f9a116;stroke:none;stroke-width:1.04385364px;stroke-linecap:butt;stroke-linejoin:miter;stroke-opacity:1;fill-opacity:0.94117647"
     d="m 603.74364,1355.4597 c 0.23587,-1.9561 19.9478,-1.9691 49.23235,-1.8566 12.54762,0.045 36.10554,0.1927 52.5556,0.3228 -0.24149,-0 7.56028,0.063 7.3188,0.061 19.07939,0.1661 42.73741,0.4542 56.23399,0.7057 8.24418,0.1534 16.62265,0.3577 22.18895,0.5613 9.98694,0.3598 15.86527,0.8395 16.01102,1.9919 0.16107,1.2735 -5.53432,3.0967 -15.61305,4.6686 -6.11345,0.9538 -13.46197,1.7797 -22.28996,2.4824 -15.96965,1.2713 -34.98436,2.0078 -56.58504,2.0071 -2.43171,0 -4.88703,-0.01 -7.36313,-0.029 -19.53664,-0.1543 -37.30173,-0.9163 -52.89085,-2.1285 -29.59572,-2.2966 -49.10086,-6.2804 -48.79868,-8.7864 z"
     id="path5772"
     inkscape:connector-curvature="0"
     inkscape:original-d="m 603.74364,1355.4597 c 51.45342,6.2042 171.57889,5.8283 203.54071,1.7858"
     sodipodi:nodetypes="cc"
     inkscape:path-effect="#path-effect5774" />
  <path
     id="path5796"
     style="fill:#f9a116;fill-opacity:0.94117647;stroke:none;stroke-width:1.89611554px;stroke-linecap:butt;stroke-linejoin:miter;stroke-opacity:1"
     d="m 629.63009,1097.6213 c -1.43426,0.2632 -8.82068,13.0467 -20.05169,35.9121 4.85389,3.7619 10.37798,8.0237 16.22138,12.5224 -0.23207,0.6055 -0.46243,1.2111 -0.67857,1.8244 -0.80025,2.2648 -1.52864,4.6652 -2.09596,7.1824 -0.60078,2.5258 -1.05321,5.4463 -0.84771,8.6501 0.0684,1.3229 0.37948,2.8372 1.08103,4.4443 0.65561,1.4893 1.80935,2.8436 3.4453,3.8648 1.40681,0.7535 2.8276,1.0444 4.14527,0.8974 0.89594,-0.1026 1.67971,-0.2939 2.36624,-0.5407 -0.0509,0.8848 -0.0764,1.7888 -0.0303,2.7323 -0.11587,2.3405 0.89156,5.3191 3.63589,8.0363 3.08712,2.0074 6.06838,2.3952 8.22634,1.7737 1.41241,-0.2529 2.72981,-0.6271 3.96834,-1.0653 -0.1152,1.1004 -0.16303,2.2743 -0.0933,3.5271 0.0387,1.1113 0.33741,2.4557 0.99937,3.955 0.65685,1.4421 1.81842,2.7015 3.44726,3.6374 1.79598,0.8773 3.61392,1.1463 5.29243,0.8466 1.61364,-0.3042 2.92755,-0.8349 3.95471,-1.4559 0.1334,1.0604 0.42232,2.2296 0.93326,3.4759 0.60242,1.4838 1.70669,2.8689 3.29562,4.0024 1.70385,1.0519 3.44289,1.5299 5.063,1.4951 h 0.002 c 1.73371,-0.034 3.21761,-0.3448 4.4233,-0.8048 2.63593,-0.9893 4.8511,-2.3259 6.74874,-3.7007 -0.0546,0.2563 -0.11924,0.5007 -0.16538,0.7676 -0.19234,0.9787 -0.19941,2.2298 0.0738,3.7044 0.2836,1.4405 1.06438,2.8238 2.32733,4.0301 1.30424,1.0735 2.69737,1.6466 4.0714,1.7341 1.40879,0.072 2.55321,-0.092 3.40835,-0.3965 2.10324,-0.7135 3.7716,-1.68 5.06883,-2.6276 0.13136,-0.123 3.36039,-3.1074 3.492,-3.2291 5.68034,-1.1161 11.20355,-1.5761 17.34518,-3.5292 9.26082,-3.2226 17.02487,-8.8459 22.83206,-15.4141 3.34258,-6.2501 5.50455,-12.8959 5.67735,-19.693 -0.18627,-10.1354 -4.52717,-18.8194 -8.623,-24.9758 0.63631,0.5663 -6.68895,-5.9493 -6.05264,-5.3834 h 0.0202 c 0.0168,0 2.10252,-2.4971 0.0505,0.038 0.0634,0.048 5.92199,5.2822 5.98262,5.3318 -0.10441,-0.458 -0.95444,-7.4291 -3.27076,-7.4202 1.38418,-2.3071 -1.91111,-2.7681 -2.42589,-4.0657 -0.5841,-1.517 -3.08267,-2.1054 -4.11432,-3.455 -0.83237,-1.3122 -2.40577,-2.345 -4.38637,-2.5466 -2.28408,0.1709 -3.75178,1.313 -4.58663,2.2685 -1.47673,1.4531 -2.55943,3.0353 -3.31701,4.2591 -2.04718,3.8373 -2.93722,5.9694 -2.56647,6.2275 h 0.006 0.006 c 0.39308,0.2222 2.02037,-1.438 4.67218,-4.6811 0.91661,-0.9705 6.30483,-1.1459 7.60075,-2.061 0.93204,-0.5502 -2.36119,-2.2808 -1.97976,-2.0084 1.97976,2.0084 -9.55555,7.1132 -8.9923,7.7598 0.57174,0.9032 10.96771,-4.6206 11.38184,-3.2622 0.32808,1.1305 0.59138,2.3252 0.81662,3.6061 0.0687,0.3936 0.13304,0.7887 0.18862,1.1854 0.10509,0.2871 0.2085,0.5731 0.31291,0.8602 0.003,0 0.0789,0.2153 0.0835,0.2289 0.0101,0.035 0.0202,0.058 0.0303,0.085 -0.24858,-0.2836 6.14184,7.0208 5.89322,6.7368 3.18284,5.8666 6.49584,13.5452 5.88932,21.0699 -0.1078,4.9307 -2.0189,9.9102 -4.85299,15.0612 -4.97294,5.165 -11.48996,9.4464 -18.96286,11.5696 -5.39939,1.7333 -11.67468,2.3867 -18.50789,3.8267 -0.0639,0.048 -0.70941,0.5243 -0.98578,0.7283 -0.0583,0.075 -0.11822,0.147 -0.17313,0.2256 0.0269,0 0.0832,-0.062 0.0778,-0.035 -0.0101,0.044 -0.0455,0.099 -0.0893,0.099 h -0.21186 c -0.6384,0.4707 -1.03879,0.7649 -1.86654,1.3753 0.2607,-0.4604 0.55084,-0.9234 0.83799,-1.3871 -0.11958,0 -0.23813,-0.035 -0.35192,-0.052 -0.70188,0.2256 -1.53406,-0.3793 -1.53406,-1.8245 v -1.9137 c -0.10105,-0.1402 -0.18796,-0.2871 -0.21591,-0.4675 -0.59468,-0.6681 -0.77155,-1.0194 -0.95077,-1.8544 -0.095,-0.222 -0.38342,-0.7921 -0.27216,-1.1615 0.006,-0.035 0.0886,0.2222 0.16538,0.2085 -0.13001,-0.2222 -0.28597,-0.4333 -0.38883,-0.6708 -0.0602,-0.1402 0.15797,0.2596 0.26037,0.3707 0.058,0.062 0.25026,0.2187 0.21389,0.1402 -0.15865,-0.3384 -0.36345,-0.6517 -0.56191,-0.9686 -0.90287,-0.5696 -1.12531,-0.7104 -1.99679,-1.2607 h -0.1499 c -0.15561,0.1367 -0.30315,0.2529 -0.55024,0.4952 -0.30651,0.2462 -0.81405,0.6873 -1.11993,0.8206 -0.24992,0.1093 -0.53212,0.1196 -0.80105,0.1605 h -0.099 c -0.29978,0.1162 -0.61319,0.2086 -0.92747,0.2769 h -0.13607 c -0.29237,0.1572 -0.59457,0.2119 -0.97411,0.311 -0.62964,0.164 -0.41959,0.2494 -0.65716,0.1401 0.33549,-0.3247 0.12799,-0.099 -0.71941,0.2495 -0.0303,0 0.0764,-0.035 0.0835,-0.052 0.003,-0.035 -0.0498,0 -0.0718,0 -0.11958,0.054 -0.22567,0.1402 -0.34801,0.1881 -0.0168,0 -4.8e-4,-0.035 -0.002,-0.052 -0.0606,0.054 -0.10105,0.1709 -0.18088,0.1606 -0.0899,0 1.14926,-1.4824 -0.57938,0.661 -0.30484,0.2938 -0.87419,0.2186 -1.1588,0.501 -0.2368,0.034 -0.47157,0.078 -0.7097,0.092 -0.0476,0 -0.53762,-0.044 -0.66103,0 -0.1957,0.062 -0.37456,0.1709 -0.56777,0.2393 -0.28631,0.1025 -1.50199,0.4367 -1.64683,0.4773 -0.0546,0 -0.10306,0.035 -0.15561,0.035 -1.52811,1.0437 -2.91924,1.9356 -4.22497,2.318 -0.23746,0.065 -0.42168,0.1162 -0.59303,0.1641 -0.0168,-0.1333 -0.0337,-0.253 -0.0583,-0.4279 -0.10475,-0.961 0.003,-2.0672 0.20042,-3.3043 0.0856,-0.5355 0.18862,-1.0939 0.29742,-1.6728 0.35684,-1.7282 0.84855,-3.4656 1.42129,-5.2078 0.18694,-0.5652 0.37881,-1.1206 0.57942,-1.665 0.0562,-0.1538 0.11081,-0.3007 0.16538,-0.4418 -0.56048,-0.3469 -1.12134,-0.6917 -1.6818,-1.0379 -0.18087,0.035 -0.36307,0.038 -0.54828,0 -0.0559,0 -0.11352,0 -0.16708,-0.035 -0.37129,0.2529 -0.2671,0.3042 -0.53078,0.2119 -0.24521,0.079 -0.47644,0.212 -0.72913,0.2598 -0.0926,0.034 0.1674,-0.089 0.24488,-0.1436 0.0201,0 0.0653,-0.068 0.0444,-0.058 -0.24858,0.1401 -0.48998,0.2973 -0.73298,0.446 -0.0832,0.051 0.16875,-0.099 0.25263,-0.1504 -0.30248,0.2017 -0.2102,0.1469 -0.83026,0.4225 -0.0169,0 0.0168,-0.065 0,-0.058 -0.13979,0.062 -0.27553,0.1366 -0.41218,0.2084 -0.28328,0.1675 -0.40026,0.2426 -0.87495,0.3629 -0.14551,0.038 -0.29944,0.035 -0.44717,0.048 -0.494,0.089 -1.03047,0.311 -1.53407,0.1743 h -0.0236 c -0.19907,0.085 -0.39183,0.1879 -0.59299,0.2699 -0.36402,0.147 -0.37603,0.123 -0.30517,0 -0.0269,0.048 -0.0535,0.096 -0.0933,0.1299 -0.24386,0.2187 -1.08267,1.0088 -1.55936,0.7716 -0.0135,-0.034 -0.0135,-0.089 -0.0391,-0.075 -0.10409,0.048 -0.17988,0.147 -0.27014,0.2188 -0.1701,0.1332 -0.32909,0.2837 -0.51135,0.4001 -0.59356,0.3797 -1.32606,0.5027 -1.96958,0.7478 -0.7218,0.2734 -1.24795,0.2461 -1.56127,0.041 -0.53281,0.5433 -1.04977,1.0402 -1.54964,1.4222 0.0809,-0.7166 0.22805,-1.517 0.39663,-2.4068 0.31527,-1.4626 0.75272,-2.9407 1.25798,-4.4283 0.16641,-0.4877 0.33745,-0.9657 0.51523,-1.4342 0.0502,-0.1334 0.0997,-0.2598 0.14787,-0.3807 -0.79482,-0.7559 -1.59044,-1.5119 -2.38567,-2.2648 h -0.97607 c -0.59226,-0.035 -1.18424,-0.038 -1.77126,0.065 -0.19199,-0.035 -0.3882,-0.035 -0.57746,-0.065 -0.12294,-0.035 -0.23814,-0.082 -0.35387,-0.1298 -0.034,0 -0.0744,-0.034 -0.0933,-0.062 -0.0101,-0.035 0.0445,-0.058 0.0235,-0.062 -0.40527,-0.052 -0.82321,0.078 -1.22684,0 h -2.33124 -1.8179 c -0.6028,0.048 -1.20945,0.096 -1.80238,0.1469 -1.5697,0.7201 -2.94145,1.3089 -4.1725,1.4753 -0.40756,-0.038 -0.71768,0 -0.93133,0.048 -0.0303,-0.2666 -0.0916,-0.646 -0.24487,-1.1144 -0.16236,-1.4928 0.0899,-3.2486 0.418,-5.1528 0.32235,-1.7309 0.77202,-3.4635 1.29686,-5.1822 0.17145,-0.5584 0.34802,-1.1058 0.53278,-1.643 0.0518,-0.1504 0.1034,-0.2974 0.15358,-0.4381 -0.37525,-0.2563 -0.75062,-0.509 -1.12575,-0.7635 -0.2378,0 -0.47587,0 -0.71358,-0.035 -0.49992,0 -0.78069,-0.034 -1.27547,-0.034 -0.0202,3e-4 -0.0468,0 -0.0701,0.034 -0.006,0.044 -0.003,0.092 -0.0135,0.1401 -0.0512,0.2427 -0.44397,0.2187 -0.68245,0.2769 -0.33077,0.079 -0.67387,0.089 -1.01102,0.1333 -1.56749,0.2118 -2.25138,0.328 -3.81866,0.4377 -0.72075,0.3978 -1.50138,0.4669 -2.31372,0.5601 -0.46927,0.054 -0.84692,0 -1.13546,-0.1025 -0.74769,0.674 -1.42761,1.2514 -2.05516,1.5306 -0.10578,-0.3076 -0.17954,-0.7384 -0.26442,-1.2582 -0.256,-1.8516 0.0468,-4.0151 0.42386,-6.2713 0.38878,-2.1577 0.94195,-4.2981 1.56907,-6.3833 0.21051,-0.6976 0.42622,-1.3803 0.65328,-2.0518 0.0643,-0.188 0.129,-0.3753 0.19233,-0.5561 0.006,0.034 -0.42407,-1.8009 -0.41804,-1.7753 0.003,0 -0.11284,-0.4771 -0.1088,-0.4597 -0.0135,-0.054 -0.0269,-0.1127 -0.0408,-0.1674 -6.66827,-4.6538 -12.89199,-8.9836 -18.46321,-12.846 -3.47754,-9.2281 6.21135,-25.8077 15.66532,-34.8034 -0.0337,-0.034 -0.0741,-0.034 -0.12058,0 z m 7.33199,61.4656 c 0.006,0.035 0.0269,0.048 0.0526,0.068 -0.0135,0 -0.0135,-0.038 -0.0269,-0.054 h -0.0135 -0.0135 z m 4.55358,0.7437 c 0.0168,0.1059 0.0269,0.2119 0.0408,0.3178 0.0269,-0.085 0.0401,-0.1675 0.0583,-0.2495 z m -1.25604,1.3454 c -0.002,0.041 4.3e-4,0.085 -0.003,0.1265 0.1435,0.048 0.55181,0.2358 0.42973,0.1434 -0.15223,-0.1127 -0.29404,-0.1981 -0.42581,-0.2734 z m -9.47656,3.4639 h 0.0236 c 0.0364,0.072 0.0169,0.051 -0.0236,0 z m 37.90045,13.5854 c -0.0269,0.038 -0.0518,0.075 -0.0815,0.1094 0.0135,0.041 0.0101,0.058 0.0408,0.1196 0.11351,-0.034 0.20177,-0.048 0.18087,-0.1127 0.0169,0 0.0303,0 0.0468,-0.035 -0.0623,-0.034 -0.12429,-0.065 -0.18661,-0.096 z m 18.33678,9.0507 c -0.0606,0.041 -0.11958,0.085 -0.17885,0.1333 h 0.0135 c 0.0559,-0.044 0.225,-0.1709 0.16706,-0.1299 z m 5.0727,2.1482 c 0.0755,0.1845 0.2048,0.5208 0.16909,0.2084 -0.0569,-0.068 -0.12193,-0.1333 -0.16909,-0.2084 z"
     inkscape:connector-curvature="0"
     sodipodi:nodetypes="ccccccccccccccccccccccccccccccccccccccccccccccccccccccccccccccccccccccccscccccccccccccccccscccccccccccccccccccccccccccccccccccccccccccccscccccccccccccccccccccccccccccccccccccccccccccccccccccccccccccccccccccccccccccccc" />
  <path
     id="path5800"
     style="fill:#f9a116;fill-opacity:0.94117647;stroke:none;stroke-width:1.89611554px;stroke-linecap:butt;stroke-linejoin:miter;stroke-opacity:1"
     d="m 675.52794,1091.4629 c -0.92288,0.035 -1.80631,0.1504 -2.6326,0.3712 -2.23227,0.5618 -4.13702,1.4745 -5.72402,2.4912 -1.40809,0.8797 -2.68663,1.8512 -3.84586,2.8662 -0.37416,0.3281 -0.74592,0.665 -1.11215,1.0181 0.14247,-0.035 0.28124,-0.058 0.41803,-0.082 0.0364,0 0.0727,0 0.1088,-0.035 0.0135,0 0.0269,0 0.0391,0 -8.13325,2.2623 -15.70429,4.4487 -21.50211,6.2139 -6.34964,-4.8592 -10.889,-7.4914 -11.52784,-6.6992 v 0 c -0.64075,0.7946 2.86566,4.8336 10.37291,11.4808 6.55263,-0.8386 15.58544,-2.1752 26.28124,-3.8859 0.0303,-0.035 0.0596,-0.035 0.0896,-0.054 -0.0236,0 0.27217,-0.164 0.24689,-0.1503 -0.21354,0.1264 1.16224,-0.7003 0.94882,-0.5721 0.27251,-0.2256 0.55908,-0.4474 0.85939,-0.6725 0.93724,-0.6992 1.91593,-1.3428 2.92619,-1.8783 1.16927,-0.5959 2.28637,-1.083 3.28588,-1.223 0.56618,-0.048 1.07419,-0.065 1.44463,0 0.0926,0.1776 0.17212,0.5218 0.27217,0.9568 0.25935,0.1709 0.51851,0.4177 0.75439,0.7754 0.15528,0.2359 0.32975,0.459 0.46665,0.7061 0.45256,0.8171 0.75824,1.6301 0.38691,2.5545 -0.003,0 -0.0235,0.035 -0.0303,0.044 0.10745,0.1947 0.2496,0.6287 0.26441,0.7118 0.0347,0.1947 0.0236,0.393 0.0337,0.5898 -0.10879,0.4754 -0.0889,0.947 -0.0718,1.4282 0.0101,0.5197 -0.002,1.0389 -0.002,1.5586 0.002,0.5054 0.002,1.0115 0.002,1.517 -10e-5,0.6096 0,1.2186 0,1.8287 -4e-5,0.4811 0,0.9626 0,1.4438 v 0.099 c 0.0135,0.072 0.0344,0.1709 0.0427,0.2118 0.12496,0.4494 0.22097,0.9054 0.31898,1.3612 0.0926,0.188 0.18627,0.3725 0.26845,0.5659 0.3369,0.348 0.57582,0.6907 0.68245,1.1602 0.23646,0.089 0.47295,0.1778 0.70968,0.2632 -0.002,-6e-4 0.23005,0.1026 0.38108,0.1675 0.006,0 0.0135,0 0.0202,0 0.035,-0.089 0.0657,-0.1811 0.14786,-0.2016 0.006,0 0.003,0 0.006,0 0.0422,-0.1197 0.0805,-0.2427 0.13811,-0.3551 0.2021,-0.3968 0.46271,-0.5536 0.82827,-0.8165 0.0539,-0.038 -0.19604,0.1778 -0.14383,0.1368 0.12732,-0.099 0.23342,-0.2256 0.36748,-0.3178 0.21052,-0.1505 0.40884,-0.3213 0.6319,-0.4539 0.1199,-0.072 0.2607,-0.099 0.39078,-0.1504 0.0269,0 0.0543,0 0.0778,0 0.73024,-0.3681 0.0135,0.041 0.69605,-0.4439 0.31157,-0.1948 0.2058,-0.1264 0.82244,-0.3417 0.0303,-0.035 0.0596,-0.048 0.0893,-0.072 0.0387,-0.035 0.0778,-0.051 0.11655,-0.075 0.20142,-0.1435 0.3955,-0.2973 0.60471,-0.4303 0.0481,-0.035 0.17785,-0.1093 0.16336,-0.054 -0.006,0.034 -0.0435,0.048 -0.0701,0.078 0.36846,-0.3143 0.12193,-0.085 0.5619,-0.5029 0.19502,-0.2393 0.39059,-0.4734 0.54442,-0.7321 0.0519,-0.051 0.13103,-0.075 0.16909,-0.1367 0.0532,-0.085 0.0586,-0.3314 0.1381,-0.27 0.0102,0 0.003,0.035 0.006,0.041 0.14888,-0.4726 0.0472,-0.3633 0.58525,-0.9862 -0.0337,0.1059 -0.16135,0.409 -0.11081,0.3109 0.11586,-0.2221 0.18559,-0.473 0.31897,-0.6865 0.0499,-0.078 0.45233,-0.5062 0.64746,-0.5977 0.003,0 -2e-4,0 0.003,0 0.11318,-0.2153 0.2213,-0.434 0.35971,-0.6332 0.25195,-0.363 0.66938,-0.6036 0.97021,-0.9173 0.0963,-0.082 0.17515,-0.1914 0.28967,-0.2392 0.0371,0 -0.0458,0.1503 -0.0168,0.1196 0.89809,-0.9169 0.0909,-0.3988 1.08106,-0.9982 0.0441,-0.035 -0.0721,0.075 -0.1088,0.1094 0.13406,-0.099 0.12598,-0.1162 0.0485,0.034 l 0.52691,-0.5783 c 0.65968,-0.6291 -0.4328,0.7857 0.51329,-0.4178 0.14382,-0.1265 0.27654,-0.2701 0.43166,-0.3807 0.0781,-0.059 0.21556,-0.1778 0.31492,-0.2427 0.40242,-0.5263 0.87893,-1.0714 0.56582,-0.5861 0.0421,-0.034 0.0842,-0.038 0.12631,-0.055 0.70461,-0.8482 1.40454,-1.5929 2.1193,-2.2234 0.0583,-0.1401 0.12092,-0.2768 0.22567,-0.3687 0.0566,-0.2426 0.12935,-0.4344 0.21793,-0.5998 0.0593,-0.5956 0.45422,-0.9903 0.9566,-1.0238 0.15731,0 0.32471,0.034 0.49386,0.092 0.43159,-0.1879 0.56289,-0.2324 0.55996,0.072 0.0576,-0.164 0.16369,-0.2665 0.33042,-0.287 0.003,0 0.003,-0.035 0.006,-0.035 0.0101,-0.034 0.0303,-0.038 0.0583,-0.041 0.0522,0 0.13169,0.034 0.21388,0.062 1.51651,0.092 2.03385,0.3848 2.02597,0.7477 0.68996,0.3961 0.72567,0.8919 0.9216,1.5919 -0.0236,0.5912 0.0545,1.1663 0.0562,1.7575 -0.0977,0.2495 -0.17583,0.5103 -0.29372,0.7519 -0.0202,0.041 -0.0599,0.1093 -0.0974,0.164 -0.002,0 -0.002,0 -0.003,0 -0.0337,0.085 -0.0697,0.164 -0.1088,0.2358 0.0236,0.1093 0.0424,0.2221 0.0562,0.3349 0.0492,0 0.0987,0 0.14787,0 0.26239,0 -0.003,0.5416 -0.0913,0.7928 -0.54351,1.5778 -3.63724,8.6761 -3.74862,8.9361 -0.17751,0.4146 -0.39868,0.7084 -0.63389,0.9173 -0.0235,0.2768 -0.0269,0.5552 -0.13405,0.8225 -0.003,0 -0.0101,0 -0.0168,0.035 0.003,0.035 0.0135,0.089 0.0168,0.1845 0.0202,0.3442 -0.002,0.3564 -0.12834,0.7436 -0.0829,0.096 -0.17481,0.1812 -0.24891,0.2837 3e-5,0 -4e-5,0 0,0 -2.7e-4,0 0.0337,0 0.0303,0 -0.006,0.035 -0.0201,0.038 -0.0303,0.058 0.006,0.4542 0.006,0.9086 0.006,1.3628 0.14955,0.8059 -0.52562,1.1954 -0.69024,1.8208 -0.003,0 0.0371,0 0.0445,0 0.0269,-0.044 0.0303,-0.099 0.0448,-0.1504 -0.0202,0.2016 -0.0559,0.702 -0.13809,1.0098 0.18155,0.1128 0.3631,0.2256 0.3636,0.2256 0.91009,0.5628 1.82068,1.124 2.72982,1.6828 0.11047,-0.1299 0.22432,-0.2666 0.34218,-0.4023 0.42549,-0.4914 0.86076,-0.9746 1.3027,-1.452 1.42815,-1.5386 2.83857,-2.9342 4.2833,-4.1878 1.73852,-1.4647 3.21286,-2.6463 4.75386,-3.3439 0.66548,-0.287 1.17059,-0.5095 1.5535,-0.5423 0.26643,-0.034 0.48513,-0.068 0.52107,-0.051 0.0269,-0.092 0.15528,0.041 0.32268,0.2289 0.2304,0.3042 0.3681,0.8581 0.50357,1.5092 0.33982,1.6933 0.17616,3.7256 -0.006,5.5156 -0.44974,4.2243 -0.81143,7.1588 -1.09466,9.4687 0.70461,0.3916 1.32006,0.6977 1.87433,0.9506 0.22937,-0.438 0.784,-0.8246 1.70513,-0.923 0.12328,0 0.24757,0 0.37138,0 -0.47102,-0.3349 -1.0663,-0.6763 -1.76933,-0.9784 1.00759,-2.0217 2.27623,-4.4163 3.92363,-7.2021 0.60563,-1.9534 1.20017,-4.4706 1.17241,-7.3464 -0.006,-1.0918 -0.18963,-2.3651 -0.71353,-3.7458 -0.46635,-1.2254 -1.33746,-2.4107 -2.66569,-3.3634 -1.37409,-0.8762 -2.87565,-1.3164 -4.34164,-1.2921 -1.51325,0.034 -2.88502,0.3075 -4.06164,0.7515 -0.17246,0.062 -0.33211,0.1435 -0.50164,0.2085 0.48507,-1.762 0.86478,-3.657 1.02268,-5.6989 0.13474,-1.5242 -0.0102,-3.346 -0.63771,-5.3557 -0.61809,-1.8916 -1.87373,-3.6157 -3.73698,-4.9337 -1.98355,-1.2686 -4.2473,-1.7614 -6.51733,-1.4124 -2.23904,0.4405 -4.02007,1.2911 -5.31572,2.2804 -2.08306,1.5006 -3.8136,3.2007 -5.3002,4.9511 -0.0236,-0.1231 -0.0373,-0.2426 -0.0643,-0.3667 -0.24251,-1.2265 -0.72247,-2.6238 -1.54184,-4.0933 -0.68182,-1.3283 -1.95699,-2.5669 -3.78945,-3.5036 -1.68102,-0.6667 -3.33041,-0.9414 -4.86855,-0.9093 z m 2.32738,14.5168 c -0.14787,0.1811 -0.26442,0.3144 -0.0303,0.065 0.0101,-0.034 0.0202,-0.044 0.0303,-0.065 z m 10.52645,5.7091 c -0.0337,0.035 -0.0697,0.062 -0.0876,0.085 0.0808,0 0.0792,-0.035 0.0876,-0.085 z m -3.73889,3.9826 c -0.0435,0.035 -0.0647,0.035 -0.0933,0.044 -0.0269,0.034 -0.0926,0.096 -0.0639,0.079 0.0562,-0.038 0.10577,-0.082 0.15764,-0.1231 z m -5.62102,2.1758 c -0.0269,0 -0.0481,0.041 -0.0701,0.068 0.002,0 3.3e-4,0.035 0.002,0.035 0.13607,0.051 0.27215,0.1025 0.4083,0.1537 -0.14383,-0.205 -0.25532,-0.2836 -0.34027,-0.2494 z m 17.74769,1.6688 c -0.0269,0.038 -0.0498,0.079 -0.0738,0.1196 -0.0235,0.038 0.0469,-0.072 0.0701,-0.1059 0.002,0 0.003,0 0.003,0 z"
     inkscape:connector-curvature="0" />
  <path
     id="path5874"
     style="opacity:0;vector-effect:none;fill:#f9a116;fill-opacity:0.94117647;stroke-width:1.89611554;stroke-linecap:butt;stroke-linejoin:miter;stroke-miterlimit:4;stroke-dasharray:none;stroke-dashoffset:0;stroke-opacity:1"
     d="m 671.15668,1175.1205 c -0.0724,0.035 -0.19873,0.096 -0.83996,0.1368 -0.0953,0 0.36543,-0.106 0.27014,-0.096 -0.48705,0.041 -0.93659,0.3246 -1.42711,0.3546 0.0364,0.044 0.0747,0.079 0.11081,0.1265 0.31224,0.4292 0.5839,0.8615 0.78549,1.3335 0.57675,-0.5257 3.34028,-1.0721 1.61766,-1.6944 -0.42619,-0.1537 -0.44468,-0.1811 -0.51717,-0.1606 z m -0.9469,2.2825 c 0.0236,0.082 0.0539,0.1606 0.0738,0.246 0.0269,0 0.0586,-0.035 0.0778,-0.038 0.0707,-0.035 0.1472,-0.048 0.22164,-0.075 -0.0337,0 -0.0202,0 -0.0623,-0.035 -0.13069,-0.038 -0.2277,-0.075 -0.31123,-0.1128 z m -1.43294,0.058 c -0.0377,0.035 -0.0704,0.1197 -0.10308,0.2154 0.10375,0 0.21557,0 0.32673,0 -0.0523,-0.106 -0.10273,-0.1812 -0.14989,-0.2085 -0.0269,0 -0.0502,-0.035 -0.0738,0 z m -1.81016,0.2119 c -0.42651,0.079 -0.85286,0.1572 -1.27936,0.2358 -0.13978,0.035 -0.27215,0.041 -0.39856,0.048 -0.0381,0.034 -0.0337,0.034 -0.0738,0.065 -0.0169,0 0.0202,-0.035 0.0391,-0.062 -0.003,4e-4 -0.0101,0 -0.0135,0 -0.0556,0.075 -0.10879,0.1469 -0.13237,0.2358 -0.0202,0.075 0.10913,-0.1811 0.17313,-0.1436 0.0617,0.038 -0.10004,0.106 -0.14955,0.1607 -0.69502,0.5433 -1.56697,0.8913 -2.39928,1.1304 -1.29356,0.3722 -1.73809,1.2429 -1.48936,1.8663 0.0583,-0.034 0.099,-0.075 0.16134,-0.106 0.39769,-0.205 0.89806,-0.2426 1.26577,-0.5146 0.0135,0 -0.0101,-0.034 -0.0135,-0.041 0.11756,-0.096 0.21894,-0.2153 0.35192,-0.2871 0.26542,-0.1436 0.55479,-0.2392 0.83214,-0.3592 0.15191,0 0.30315,-0.034 0.455,-0.048 0.25767,-0.2016 0.50315,-0.4248 0.78548,-0.5898 0.20648,-0.1197 0.45338,-0.1572 0.6747,-0.2461 0.45119,-0.1846 0.82379,-0.4275 1.33378,-0.4357 0.098,0 0.1947,0.034 0.2917,0.038 -0.50548,-0.2905 -0.59308,-0.6903 -0.41417,-0.9469 z m 1.62352,0.4716 c -0.006,0 -0.006,0 -0.0135,0.035 -0.002,0.034 -0.003,0.048 -0.006,0.072 0.002,0.034 0.0202,0.065 0.0337,0.099 0.0441,-0.048 0.0812,-0.099 0.11654,-0.1538 -0.0492,-0.035 -0.10408,-0.044 -0.13035,-0.038 z"
     inkscape:connector-curvature="0" />
  <path
     id="path5885"
     style="opacity:0;vector-effect:none;fill:#f9a116;fill-opacity:0.94117647;stroke-width:1.89611554;stroke-linecap:butt;stroke-linejoin:miter;stroke-miterlimit:4;stroke-dasharray:none;stroke-dashoffset:0;stroke-opacity:1"
     d="m 649.04014,1171.3665 c -2.4637,0 -2.4637,2.5252 0,2.5252 h 2.28652 2.3312 c 0.40365,0.078 0.82156,-0.052 1.22687,0 0.0202,0 -0.0344,0.041 -0.0236,0.062 0.0202,0.034 0.0593,0.048 0.0933,0.062 0.11553,0.048 0.23106,0.1025 0.35387,0.1298 0.1893,0.038 0.3853,0.041 0.57746,0.062 0.58703,-0.1025 1.17897,-0.082 1.77126,-0.062 0.48735,0 0.97469,0 1.46211,0 0.91227,0 1.82532,0 2.73759,0 0.3593,-3e-4 0.71786,-3e-4 1.07716,0 2.4637,3e-4 2.4637,-2.5247 0,-2.5251 -0.35964,0 -0.71948,-4e-4 -1.07912,0 -0.91207,0 -1.82355,0 -2.73563,0 -0.46152,0 -0.92284,0 -1.38434,0 -0.60282,-0.034 -1.23609,-0.072 -1.82764,0.058 -0.0842,-0.044 -0.16707,-0.089 -0.25667,-0.1196 -0.67766,-0.2221 -1.28925,-0.2187 -1.99292,-0.1914 h -2.33124 z m 6.92952,0.3418 c 0.0387,0 0.0768,0.035 0.11486,0.038 0.006,0 -0.0169,0 -0.0236,0 -0.0303,0 -0.0597,-0.034 -0.0896,-0.044 z"
     inkscape:connector-curvature="0" />
  <path
     id="path5960"
     style="opacity:0;vector-effect:none;fill:#f9a116;fill-opacity:0.94117647;stroke-width:1.89611554;stroke-linecap:butt;stroke-linejoin:miter;stroke-miterlimit:4;stroke-dasharray:none;stroke-dashoffset:0;stroke-opacity:1"
     d="m 675.95328,1176.3535 c -0.13844,0 -0.27957,0 -0.48996,0.051 -0.16538,0.035 -0.32435,0.096 -0.4822,0.1573 -0.0546,0.035 -0.17751,0.048 -0.21759,0.075 -0.37139,-0.035 -0.71745,0 -1.09463,0.1094 -0.11083,0.034 -0.23175,0.048 -0.32673,0.1162 -0.0269,0.034 0.0967,0.062 0.066,0.068 -0.0839,0.034 -0.17246,0 -0.25869,-0.035 -0.60306,-0.058 -0.89176,-0.041 -1.39799,0.1811 -0.11216,0.038 -0.26137,0.1162 -0.35774,0.1333 -0.12563,0.044 -0.25127,0.089 -0.37718,0.1333 0.003,0 0.0269,0.035 0.0168,0.035 -0.21961,0.085 -0.45747,0.1195 -0.6708,0.2187 -0.0202,0 -0.0519,0.035 -0.0778,0.041 0.003,0 0.0101,0.035 0.0135,0.038 0.002,0 0.003,0.035 0.006,0.038 0.47321,0.9031 0.35404,0.4159 0.0485,2.0754 -0.25498,1.3854 -0.66447,-0.1265 -1.04021,-1.2823 -0.14382,-0.089 -0.25295,-0.1401 -0.37913,-0.2119 -0.0357,0 -0.0714,0.035 -0.10678,0.041 0.0202,0.065 -0.0664,0.096 -0.18087,0.1128 0.002,0 4e-4,0 0.002,0 0.27653,0.5406 0.11115,0.3348 0.34027,0.4124 0.0337,-0.034 0.0657,-0.075 0.10306,-0.058 0.0361,0 -0.0303,0.048 -0.0815,0.068 0.0415,0 0.0647,0 0.13405,0.054 0.0303,0 -0.16908,0 -0.21185,-0.035 -0.11486,0.048 -0.23074,0.1025 -0.35388,0.1196 -0.0303,0 -0.067,0 -0.099,0 -0.0168,0.089 -0.0269,0.1743 -0.0546,0.2597 0.0168,0.035 0.0135,0.035 0.035,0.062 -0.0236,-0.035 -0.0202,-0.035 -0.039,-0.044 -0.0135,0.041 -0.0202,0.082 -0.0371,0.1195 -0.003,0 -0.0822,-0.1776 -0.14181,-0.3281 -0.0101,0 -0.036,-0.075 -0.0485,-0.096 -0.1189,-0.035 -0.23478,-0.075 -0.32842,-0.1196 -0.14213,-0.062 -0.27754,-0.1436 -0.41609,-0.2119 -0.0269,0 -0.0424,-0.034 -0.066,-0.041 -0.097,0 -0.19368,-0.041 -0.2917,-0.038 -0.51002,0 -0.88263,0.2529 -1.33381,0.4358 -0.2213,0.089 -0.46817,0.1265 -0.67468,0.246 -0.28226,0.1641 -0.52771,0.3868 -0.78548,0.5898 -0.15191,0 -0.30315,0.035 -0.45499,0.048 -0.27721,0.1196 -0.56676,0.2153 -0.83218,0.3591 -0.13304,0.072 -0.2341,0.1914 -0.35192,0.2871 0.003,0 0.0269,0.035 0.0135,0.041 -0.36768,0.2734 -0.86807,0.3076 -1.26573,0.515 -2.19442,1.1359 -1.89822,3.3699 0.4083,2.4913 0.64351,-0.2461 1.37606,-0.3681 1.96958,-0.7477 0.18223,-0.1162 0.34145,-0.2667 0.51138,-0.4002 0.0903,-0.072 0.16606,-0.1675 0.27014,-0.2188 0.0236,0 0.0269,0.052 0.039,0.075 0.47661,0.2392 1.31545,-0.5526 1.55932,-0.7709 0.0398,-0.038 0.067,-0.082 0.0933,-0.13 -0.0707,0.1232 -0.0586,0.147 0.30517,0 0.20108,-0.082 0.39382,-0.181 0.59299,-0.2699 0.0236,0 0.003,0 0.0236,0 0.50363,0.1367 1.0401,-0.085 1.53409,-0.1743 0.14753,-0.035 0.3018,0 0.44718,-0.048 0.47466,-0.1231 0.59161,-0.1948 0.87495,-0.3629 0.13641,-0.072 0.27249,-0.1436 0.41218,-0.2085 0.0168,0 -0.0168,0.065 0,0.058 0.62024,-0.2769 0.52781,-0.2188 0.83021,-0.4221 -0.0842,0.048 -0.33581,0.2016 -0.25261,0.1504 0.24285,-0.1504 0.48436,-0.3042 0.73301,-0.446 0.0202,0 -0.0269,0.044 -0.0448,0.058 -0.0778,0.054 -0.33763,0.1607 -0.24488,0.1436 0.25263,-0.048 0.48384,-0.1812 0.72915,-0.2598 0.26339,0.092 0.15931,0.041 0.53077,-0.2118 0.0539,0 0.11149,0 0.16707,0.035 0.54186,0.1093 1.06449,-0.13 1.57296,-0.2803 0.16707,-0.052 0.17179,-0.082 0.19435,0 0.49565,0.1401 0.97115,-0.1436 1.41742,-0.3178 0.0135,0 0.002,0.048 0.0876,0.072 0.83511,-0.034 1.3093,-0.4418 1.78487,-1.075 1.49283,-1.9887 -4.22951,-0.1846 -2.07457,-1.395 0.0846,-0.048 0.17582,-0.062 0.26846,-0.062 -0.0589,0 -0.13507,0 -0.19066,0 z"
     inkscape:connector-curvature="0" />
  <path
     id="path5981"
     style="opacity:0;vector-effect:none;fill:#f9a116;fill-opacity:0.94117647;stroke-width:1.89611554;stroke-linecap:butt;stroke-linejoin:miter;stroke-miterlimit:4;stroke-dasharray:none;stroke-dashoffset:0;stroke-opacity:1"
     d="m 694.30758,1183.001 c -0.002,0 -0.0236,0 -0.0718,0.038 -0.0589,0.035 -0.0903,0.051 -0.1381,0.078 0.0529,0 0.10745,-0.034 0.1573,-0.048 0.0347,-0.044 0.0535,-0.065 0.0526,-0.068 z m -0.20984,0.1162 c -0.0593,0 -0.11688,0.038 -0.16134,0.079 -0.003,0 0.0135,0 0.0135,0 0.0394,-0.035 0.0983,-0.054 0.14989,-0.082 z m -0.14956,0.082 c -0.0168,0 -0.0367,0.034 -0.0526,0.038 0.061,0 0.12261,0.035 0.17886,0 0.0414,0 -0.12496,0 -0.12631,-0.038 z m -0.0526,0.038 c -0.0236,0 -0.0455,0 -0.068,0 -0.23714,0 -0.47433,0 -0.71163,0 0.4137,0.2905 0.54281,0.5609 0.71163,1.1439 0.18963,0.2085 0.39389,0.422 0.54438,0.6274 0.10711,0.147 0.17919,0.3144 0.26442,0.4754 0.0202,0.041 0.0435,0.079 0.066,0.1161 0.13474,-0.044 0.25835,-0.096 0.45887,-0.1742 0.63795,-0.3851 0.36609,-0.1778 0.83605,-0.5998 1.71584,-1.5456 -3.20323,-0.8028 -2.10179,-1.5856 z m -0.24486,0.8363 c -0.003,0 -0.003,0.035 -0.003,0.054 0.006,0 0.0168,0.035 0.0202,0.044 0.003,0 0.006,0.034 0.0101,0.034 0.0401,0.048 0.0802,0.096 0.12261,0.1401 -0.062,-0.1708 -0.12429,-0.3213 -0.14955,-0.2734 z m -2.74151,0.9073 c -0.13945,0 -0.30348,0.035 -0.31291,0.038 -0.62071,0.041 -1.24162,-0.035 -1.86265,0 -0.28023,0.038 -0.57786,-0.041 -0.85551,0 -0.0202,0 0.0169,0.048 0.002,0.065 -0.12462,0.1265 -0.2799,0.2154 -0.40634,0.3383 -0.18661,0.2392 -0.23478,0.3042 -0.523,0.4952 -0.13575,0.1572 -0.30282,0.2905 -0.44913,0.4398 0.0835,-0.065 0.32368,-0.2733 0.25094,-0.1981 -0.58909,0.6235 -0.92767,0.7032 -1.75379,0.6708 -1.35214,-0.052 -0.38684,-0.8821 0.36166,-1.5762 -0.26206,0.035 -0.44333,0.092 -0.64941,0.2222 -0.0852,0.034 -0.17886,0.052 -0.23342,0.065 -0.14854,0.034 -0.2927,0.075 -0.43943,0.1127 -0.0866,0.035 -0.16976,0.068 -0.25869,0.089 -0.18525,0.045 -0.37493,0.068 -0.56189,0.1026 -0.0472,0.034 -0.11857,0.034 -0.18291,0.044 -0.0101,0 -0.0168,0 -0.0269,0 -0.13171,0.035 -0.2597,0.054 -0.33043,0.1127 -0.0101,0 -0.0236,0 -0.0337,0 -0.47702,0.1129 -0.88499,0.4252 -1.30656,0.6549 -0.33967,0.3109 -0.33347,0.2802 -0.64551,0.7104 0,0 -0.002,0 -0.002,0 -1.06627,0.2016 1.15061,-0.2016 -1.20743,0.082 -0.82608,0.099 -1.58214,0.5737 -2.4012,0.7221 -2.4255,0.4384 -1.96572,3.1576 0.40829,2.4891 0.14485,-0.041 1.36044,-0.3745 1.64684,-0.4773 0.19335,-0.068 0.37196,-0.1777 0.56773,-0.2392 0.12361,-0.038 0.61367,0 0.66105,0 0.23815,0 0.47302,-0.062 0.70968,-0.092 0.28462,-0.2836 0.854,-0.2085 1.15879,-0.501 1.72866,-2.1434 0.48942,-0.6726 0.57942,-0.661 0.0798,0 0.12025,-0.1059 0.18088,-0.1605 0.002,0.035 -0.0135,0.058 0.002,0.051 0.12261,-0.048 0.22837,-0.1332 0.34802,-0.188 0.0236,0 0.0768,-0.034 0.0718,0 -0.006,0.035 -0.11351,0.065 -0.0835,0.051 0.84747,-0.3479 1.05502,-0.5748 0.7194,-0.2495 0.23747,0.1129 0.0269,0.035 0.65716,-0.1367 0.37954,-0.099 0.68161,-0.1571 0.97411,-0.311 0.0455,0 0.0926,0 0.13608,0 0.31426,-0.068 0.62751,-0.1571 0.92743,-0.2767 0.0202,0.035 0.0677,0 0.0994,0 0.26879,-0.041 0.55112,-0.052 0.80105,-0.1606 0.30584,-0.1333 0.81337,-0.5759 1.11992,-0.8209 0.24691,-0.2426 0.39476,-0.3588 0.55025,-0.4952 0.41932,0.123 0.81948,-0.3677 1.21132,-0.328 0.0336,0 0.0576,0.034 0.0892,0.041 0.12194,0 0.24522,0 0.36748,0.035 -0.0269,-0.1881 -0.0643,-0.3678 -0.0721,-0.5642 -0.003,-0.068 -0.003,-0.1299 -0.006,-0.1983 z m -1.12963,0.6176 c 0.0707,-0.062 -0.12126,0.1469 -0.20209,0.1948 -0.006,0 -0.0135,0 -0.0202,0 0.0718,-0.062 0.12968,-0.1196 0.22365,-0.2017 z m -2.61121,0.099 c -0.0518,0.044 -0.10543,0.085 -0.15562,0.1332 -0.0101,0 -0.0236,0.034 -0.035,0.041 0.0408,-0.041 0.12698,-0.1161 0.19065,-0.1776 z m -0.14584,1.584 c 0.058,-0.041 -0.1115,0.085 -0.16707,0.1297 -0.003,0 -0.006,6e-4 -0.0135,0 0.0593,-0.044 0.11789,-0.089 0.17886,-0.1332 z"
     inkscape:connector-curvature="0" />
  <path
     id="path5997"
     style="opacity:0;vector-effect:none;fill:#f9a116;fill-opacity:0.94117647;stroke-width:1.89611554;stroke-linecap:butt;stroke-linejoin:miter;stroke-miterlimit:4;stroke-dasharray:none;stroke-dashoffset:0;stroke-opacity:1"
     d="m 691.46887,1182.3917 c -0.32773,0 -0.65786,0.065 -1.10824,0.1093 -0.54981,0 -1.09874,-0.034 -1.64878,-0.034 -0.81176,-0.041 -1.56683,0.092 -2.26707,0.5465 -0.19908,0.1298 -0.37375,0.2939 -0.55995,0.4414 -0.0499,0.062 -0.83702,0.8325 -0.838,0.9135 -2.7e-4,0 0.006,0 0.0135,0.035 0.0202,0 0.0411,-0.035 0.0603,-0.044 -0.0168,0.035 -0.0371,0.035 -0.0546,0.051 0.0202,-4e-4 0.0535,-0.035 0.0913,-0.068 0.0586,-0.034 0.12329,0 0.18459,-0.034 2.44774,-0.2837 -2.806,2.4024 -0.34415,2.4991 0.82612,0.035 1.1647,-0.048 1.75378,-0.6704 0.0731,-0.075 -0.16707,0.1332 -0.25094,0.1981 0.14618,-0.1503 0.31325,-0.2836 0.44916,-0.4398 0.28833,-0.188 0.3365,-0.2563 0.523,-0.4952 0.12632,-0.123 0.28159,-0.2118 0.40639,-0.3383 0.0135,0 -0.0235,-0.062 -0.002,-0.065 0.27755,-0.048 0.57534,0.034 0.85548,0 0.62102,0 1.24196,0.058 1.86267,0 0.0101,0 0.1738,-0.035 0.31292,-0.038 0.003,0.068 0.003,0.13 0.006,0.1983 0.0269,0.6981 0.17616,1.3153 0.40636,1.9708 0.0408,0.1914 0.0303,0.1401 -0.0269,-0.1572 0.24387,0.4152 0.52846,0.8082 0.73299,1.2445 0.0364,0.079 -0.15595,-0.078 -0.2139,-0.14 -0.10272,-0.1128 -0.32099,-0.5103 -0.26036,-0.3709 0.10272,0.2359 0.25902,0.4474 0.38887,0.6706 -0.0768,0 -0.15932,-0.2255 -0.16539,-0.2085 -0.11114,0.3694 0.17718,0.9391 0.27217,1.162 0.17918,0.8348 0.35609,1.1861 0.95077,1.8542 0.0269,0.1777 0.11486,0.3281 0.2159,0.4675 v 1.9134 c 0,1.4453 0.83218,2.0508 1.53406,1.8249 0.50127,0.123 1.06914,0.038 1.59237,0.062 0.0438,0 0.0805,-0.054 0.0893,-0.099 0.003,-0.034 -0.0519,0.035 -0.0778,0.035 0.20043,-0.2802 0.43815,-0.5382 0.60273,-0.8424 0.0509,-0.096 0.0667,-0.2871 0.0721,-0.4894 0.29372,-0.3947 0.61064,-1.0317 0.69024,-1.4301 0.0269,-0.1265 0.0269,-0.2598 0.035,-0.3903 0.003,0 0.0101,0 0.0236,0 0.0812,-0.041 0.0697,-0.1675 0.0933,-0.2563 0.14146,-0.5308 0.11621,-1.0238 0.0701,-1.5625 -0.0202,-0.5485 -0.21219,-1.1698 -0.57746,-1.5901 -0.15157,-0.1743 -0.34056,-0.3076 -0.52691,-0.446 -0.0135,-0.096 -0.13068,-0.2221 -0.18458,-0.3109 -0.16032,-0.27 -0.8092,-1.1319 -1.02851,-1.3728 -0.18963,-0.2085 -0.4084,-0.3861 -0.60663,-0.5858 -0.0977,-0.099 -0.18661,-0.205 -0.27991,-0.3075 0.0492,0.044 0.16572,0.1982 0.14787,0.1332 -0.0485,-0.1742 -0.16202,-0.328 -0.2469,-0.4872 -0.0852,-0.1607 -0.1573,-0.3281 -0.2644,-0.4754 -0.15057,-0.205 -0.35479,-0.4183 -0.54443,-0.627 -0.20108,-0.6941 -0.3183,-0.943 -0.96438,-1.3121 0.002,0 0.006,0 0.006,0 -0.0404,-0.14 -0.18255,-0.2358 -0.30718,-0.3109 -0.4393,-0.2632 -0.76502,-0.3475 -1.09271,-0.3534 z m -6.4026,2.0122 c -0.003,0 -0.003,0 -0.006,0 -0.036,0.034 -0.0718,0.044 -0.10879,0.075 -0.0994,0.1229 -0.1765,0.2186 -0.10308,0.1571 0.0778,-0.068 0.14686,-0.1469 0.21759,-0.2221 z m -0.11486,0.065 c 0.073,-0.089 0.15932,-0.1914 0.20209,-0.2495 -0.77454,0.8889 -0.50669,0.4946 -0.20209,0.2495 z m 8.69885,-0.3985 c 0.0269,-0.048 0.0876,0.1026 0.14989,0.2734 -0.0424,-0.048 -0.0825,-0.096 -0.12261,-0.1401 -0.003,0 -0.006,-0.034 -0.0101,-0.034 -0.006,0 -0.0135,-0.035 -0.0202,-0.044 0.002,-0.034 -6e-5,-0.048 0.003,-0.054 z m -6.48235,1.6237 c -0.0634,0.058 -0.14988,0.1332 -0.19064,0.1742 0.0135,0 0.0236,-0.035 0.035,-0.041 0.0502,-0.048 0.10374,-0.089 0.15561,-0.1333 z m 9.38909,2.4875 c 0.0101,0 0.0168,0.035 0.0236,0.048 -0.0562,-0.035 -0.0839,-0.041 -0.0236,-0.048 z m -4.46219,1.2446 c 0.0472,0.075 0.11217,0.1401 0.16909,0.2085 0.0357,0.3109 -0.094,-0.035 -0.16909,-0.2085 z"
     inkscape:connector-curvature="0" />
  <path
     id="path6501"
     style="fill:#f9a116;fill-opacity:0.94117647;stroke:none;stroke-width:1.89611554px;stroke-linecap:butt;stroke-linejoin:miter;stroke-opacity:1"
     d="m 417.04105,1009.5043 c -0.13507,0.082 -0.29527,0.1922 -0.44253,0.2845 0.5079,0.1059 0.56544,-0.035 0.44253,-0.2845 z m -0.54491,0.3487 v 0 c -0.19401,0.1231 -0.37116,0.2328 -0.58428,0.3794 -2.46957,1.7671 -4.36676,4.0798 -5.6113,6.6672 -0.0967,0.3109 -0.18994,0.6209 -0.27718,0.9322 -1.43029,5.1042 -1.58376,10.265 -1.22369,14.969 113.49392,58.1112 217.00009,113.255 205.28756,99.6365 1.33048,-2.7133 -87.69465,-47.1333 -198.61005,-102.2918 -0.24846,-4.9828 1.87446,-6.7761 3.44584,-8.4625 0.096,-0.1026 0.1956,-0.2015 0.29765,-0.3006 0.59986,-1.1906 1.39935,-2.2293 2.33083,-2.8369 0.28563,-0.2119 0.76518,-0.4753 1.39377,-0.8584 3.58005,-1.2814 31.51985,9.686 41.06979,13.3489 90.52916,43.0702 175.84566,76.2969 177.26205,73.2705 1.59776,-3.4139 -93.20116,-42.9551 -214.92852,-91.8962 0.007,-0.045 0.009,-0.086 0.0126,-0.1302 h -0.19372 c -0.20782,-0.075 -0.66385,-0.1937 -0.91815,-0.3697 -0.0967,-0.068 -0.58077,-0.4487 -0.72759,-0.4227 -0.57359,-0.3007 -0.35791,-0.1845 -0.66933,-0.434 -8.1e-4,-2e-4 -0.002,0 -0.003,0 -0.0486,-0.04 -0.0173,-0.032 -0.11811,-0.095 -0.0168,0 -0.0704,-0.034 -0.0551,0 0.0388,0.032 0.11904,0.067 0.15276,0.088 -0.18648,-0.037 -0.36081,-0.1132 -0.54333,-0.1623 -0.48786,0.1606 -1.03941,-2e-4 -1.51347,-0.079 -0.44323,-0.1162 -0.55209,-0.158 -0.82681,-0.3391 -0.6963,0.1401 -1.35569,-0.061 -1.97963,-0.3488 -0.38776,1.6028 -0.9876,2.8797 -1.97175,3.8704 -0.61233,-0.5228 -0.49481,-1.7969 0.16221,-3.9492 -0.20244,-0.034 -0.42513,-0.072 -0.65988,-0.188 z m 9.74853,3.152 c 4.01737,1.9252 7.75412,3.6996 11.70768,5.5903 -6.58423,-2.966 -11.75495,-5.3464 -11.70768,-5.5903 z"
     inkscape:connector-curvature="0"
     sodipodi:nodetypes="cccccccccccccccccccccccccccccccccccccc" />
  <path
     style="fill:#f9a116;fill-opacity:0.94117647;stroke:none;stroke-width:1.89681053px;stroke-linecap:butt;stroke-linejoin:miter;stroke-opacity:1"
     d="m 694.02619,1269.7744 c -1.93997,0.44 -3.88677,-1.9493 -5.04205,-6.7481 -0.70262,-2.8307 -1.05469,-6.1702 -1.17146,-10.144 -0.20485,-6.9305 0.36465,-14.0817 1.15031,-23.0621 0.28527,-3.2712 0.61014,-6.7845 0.78783,-10.0507 0.11164,-2.562 0.23635,-4.8179 0.009,-6.5051 -0.10506,-0.5946 -0.11124,-0.8087 -0.11654,-0.5934 0,0 0,0 0,0 -0.15609,0.1787 0.36891,0.9808 1.47613,2.5825 1.4526,1.6378 3.34022,2.6249 5.80692,3.0406 2.38622,-0.033 3.61114,-0.089 3.71084,-0.413 m -5.93776,0.8958 c 0.0559,0.022 0.11437,0.04 0.17576,0.052 0.64533,0.1275 1.60689,-0.3111 3.22161,-1.1443 1.09414,-1.2403 1.49776,-1.4591 1.08445,-1.2036 -1.18598,1.8686 -1.07633,6.0475 -1.3922,10.7455 -0.1632,6.3439 0.18102,14.4456 0.26021,19.7749 0,0 0,0 0,0 0.20352,13.1799 -0.57041,21.9669 -4.02274,22.7732 -3.20731,0.7491 -8.43515,-6.5714 -13.02744,-19.6515 0,0 0,0 0,0 -2.0487,-5.7944 -4.12446,-13.247 -5.15112,-21.6841 -0.85114,-5.0068 -1.1798,-11.9736 1.37064,-20.1596 0.79407,-2.9768 3.01281,-6.382 6.96268,-9.7021 4.08806,-2.6345 8.21152,-3.7761 11.97662,-3.4798 0.35744,0.028 0.71098,0.069 1.06031,0.123 m -5.93776,0.8958 c 1.59452,-0.9675 4.43746,-1.4857 8.42528,-1.329 3.73517,0.5657 6.80695,2.2038 9.1002,4.7901 2.13091,2.7565 3.25058,5.0274 3.5112,6.6764 0,0 0,0 0,0 0.56115,2.2189 0.79772,4.0701 0.82323,5.5245 0.13768,4.0783 -0.2458,7.603 -0.7459,10.5187 -0.64135,4.0443 -1.50137,7.8169 -2.3927,11.2191 -2.22343,8.5314 -5.09879,16.5449 -7.27468,21.95 -1.31321,3.2889 -2.76666,6.4301 -3.80896,8.4658 -1.41223,3.1948 -3.77372,5.5892 -4.8916,5.8427"
     id="path6663"
     inkscape:connector-curvature="0"
     inkscape:path-effect="#path-effect6665"
     inkscape:original-d="m 694.02619,1269.7744 c -2.63856,-11.6344 16.54385,-69.0573 1.9323,-62.7758 -15.6148,-1.6696 -8.11527,36.3015 -1.9323,62.7758"
     sodipodi:nodetypes="ccc" />
  <path
     style="fill:#f9a116;stroke:none;stroke-width:1.89611566px;stroke-linecap:butt;stroke-linejoin:miter;stroke-opacity:1;fill-opacity:0.94117647"
     d="m 578.64205,1434.8203 c 0.60116,-5.2332 50.28899,-2.3101 112.97111,-1.7838 0,0 10e-6,0 10e-6,0 3.57872,0.031 7.19199,0.054 10.85193,0.07 67.74862,0.2982 123.25691,-2.3752 123.82021,3.0334 0.51663,4.9605 -54.44776,16.2265 -123.9029,15.9263 -3.72642,-0.016 -7.41301,-0.065 -11.05706,-0.144 0,0 -10e-6,0 -10e-6,0 -64.22529,-1.4099 -113.20863,-12.529 -112.68329,-17.1022 z"
     id="path6667"
     inkscape:connector-curvature="0"
     inkscape:original-d="m 578.64205,1434.8203 c 71.27572,8.1878 147.04908,11.7967 247.64326,1.3199"
     sodipodi:nodetypes="cc"
     inkscape:path-effect="#path-effect6669" />
  <path
     style="fill:#f9a116;stroke:none;stroke-width:1.89611566px;stroke-linecap:butt;stroke-linejoin:miter;stroke-opacity:1;fill-opacity:0.94117647"
     d="m 581.23114,1469.403 c 0.21503,-5.2201 55.52879,-6.9503 123.34474,-6.9204 67.8185,0.03 123.13229,1.8237 123.34002,7.0535 0.20744,5.2225 -54.93326,11.938 -123.3484,11.9077 -68.41693,-0.03 -123.55186,-6.8093 -123.33636,-12.0408 z"
     id="path6671"
     inkscape:connector-curvature="0"
     inkscape:original-d="m 581.23114,1469.403 c 80.32871,3.3089 162.48466,3.4776 246.68476,0.1331"
     sodipodi:nodetypes="cc"
     inkscape:path-effect="#path-effect6673" />
  <path
     style="fill:#f9a116;stroke:none;stroke-width:1.89611554px;stroke-linecap:butt;stroke-linejoin:miter;stroke-opacity:1;fill-opacity:0.94117647"
     d="m 584.48256,1496.1765 c 0.21229,-5.2693 53.32639,-7.0462 118.41949,-6.9833 65.0681,0.063 118.16327,1.8039 118.3918,6.9833 0.23253,5.2699 -52.69588,12.04 -118.40993,11.9778 -65.69652,-0.062 -118.61017,-6.7951 -118.40136,-11.9778 z"
     id="path6675"
     inkscape:connector-curvature="0"
     inkscape:original-d="m 584.48256,1496.1765 c 78.32672,3.1557 157.19474,3.513 236.81128,0"
     sodipodi:nodetypes="cc"
     inkscape:path-effect="#path-effect6677" />
  <path
     style="fill:#f9a116;stroke:none;stroke-width:1px;stroke-linecap:butt;stroke-linejoin:miter;stroke-opacity:1;fill-opacity:0.94117647"
     d="m 699.9966,1123.5818 c 2.44567,1.2792 -3.87337,18.1938 -14.105,37.7558 -10.23163,19.562 -20.52046,34.4003 -22.96613,33.1211 -2.44568,-1.2792 3.87336,-18.1938 14.105,-37.7558 10.23163,-19.562 20.52046,-34.4003 22.96613,-33.1211 z"
     id="path6869"
     inkscape:connector-curvature="0"
     inkscape:path-effect="#path-effect6871"
     inkscape:original-d="m 699.9966,1123.5818 -37.07113,70.8769" />
  <path
     style="fill:#f9a116;fill-opacity:0.94117647;stroke:none;stroke-width:0.99999994px;stroke-linecap:butt;stroke-linejoin:miter;stroke-opacity:1"
     d="m 719.80667,1123.9719 c 2.53468,1.0922 -2.7665,19.0545 -11.83299,40.0944 -9.06649,21.0399 -18.48193,37.2292 -21.01661,36.137 -2.53468,-1.0922 2.7665,-19.0545 11.83299,-40.0944 9.06649,-21.0399 18.48193,-37.2292 21.01661,-36.137 z"
     id="path6873"
     inkscape:connector-curvature="0"
     inkscape:path-effect="#path-effect6875"
     inkscape:original-d="m 719.80667,1123.9719 -32.8496,76.2314" />
  <path
     style="fill:#f9a116;fill-opacity:0.94117647;stroke:none;stroke-width:0.99999994px;stroke-linecap:butt;stroke-linejoin:miter;stroke-opacity:1"
     d="m 671.05667,1097.0969 c 2.50158,1.1661 -2.97476,18.2164 -12.22396,38.0588 -9.2492,19.8424 -18.78606,35 -21.28764,33.8339 -2.50158,-1.1661 2.97476,-18.2164 12.22396,-38.0588 9.2492,-19.8424 18.78606,-35 21.28764,-33.8339 z"
     id="path6877"
     inkscape:connector-curvature="0"
     inkscape:path-effect="#path-effect6879"
     inkscape:original-d="m 671.05667,1097.0969 -33.5116,71.8927" />
  <path
     style="fill:#f9a116;fill-opacity:0.94117647;stroke:none;stroke-width:1px;stroke-linecap:butt;stroke-linejoin:miter;stroke-opacity:1"
     d="m 647.28969,1107.1756 c 0.83851,1.1291 -0.421,3.4896 -2.33964,6.673 -1.94444,3.2262 -4.50894,7.2376 -6.38118,12.0188 -0.11708,0.299 -0.22996,0.5971 -0.33874,0.8946 0,0 0,0 0,0 -1.69468,4.3599 -2.85139,9.5314 -3.82488,12.7943 -1.05102,3.5227 -2.1275,5.843 -3.48997,5.8796 -1.294,0.035 -2.69455,-2.2176 -3.42154,-6.1778 -0.71705,-3.9061 -0.76293,-9.6867 1.34176,-15.884 0,0 0,0 0,0 0.14438,-0.4046 0.29791,-0.8079 0.46063,-1.2096 2.63019,-6.4928 6.96756,-10.9354 10.65345,-13.3297 3.70435,-2.4062 6.55233,-2.72 7.34011,-1.6592 z"
     id="path6881"
     inkscape:connector-curvature="0"
     inkscape:path-effect="#path-effect6883"
     inkscape:original-d="m 647.28969,1107.1756 c -14.47481,10.7497 -16.75205,24.21 -16.37441,38.2603"
     sodipodi:nodetypes="cc" />
  <path
     inkscape:original-d="m 691.58503,1100.3416 -34.55671,79.1085"
     inkscape:path-effect="#path-effect6939"
     inkscape:connector-curvature="0"
     id="path6937"
     d="m 691.58503,1100.3416 c 2.52922,1.1048 -3.15878,19.7218 -12.69644,41.5558 -9.53765,21.8339 -19.33105,38.6575 -21.86027,37.5527 -2.52922,-1.1048 3.15878,-19.7218 12.69644,-41.5558 9.53765,-21.8339 19.33105,-38.6575 21.86027,-37.5527 z"
     style="fill:#f9a116;fill-opacity:0.94117647;stroke:none;stroke-width:1px;stroke-linecap:butt;stroke-linejoin:miter;stroke-opacity:1"
     inkscape:transform-center-x="-2.1376137"
     inkscape:transform-center-y="4.1307946" />
</svg>
